# MagicaVoxel @ Ephtracy

# group
o 

# material
mtllib Bard_Body.mtl
usemtl palette

# normals
vn -1 0 0
vn 1 0 0
vn 0 0 1
vn 0 0 -1
vn 0 -1 0
vn 0 1 0

# texcoords
vt 0.0214844 0.5
vt 0.0917969 0.5
vt 0.537109 0.5
vt 0.841797 0.5
vt 0.869141 0.5
vt 0.873047 0.5
vt 0.958984 0.5

# verts
v -1.4 2 0.5
v -1.4 2 -0.7
v -1.4 2.5 0.5
v -1.4 2.5 -0.7
v -1.3 1.9 0.7
v -1.3 1.9 -0.7
v -1.3 2 0.5
v -1.3 2 -0.7
v -1.3 2.5 0.5
v -1.3 2.5 -0.7
v -1.3 2.7 0.7
v -1.3 2.7 -0.7
v -1.2 1.8 0.8
v -1.2 1.8 -0.8
v -1.2 1.9 0.7
v -1.2 1.9 -0.7
v -1.2 2.7 0.8
v -1.2 2.7 0.7
v -1.2 2.7 -0.7
v -1.2 2.7 -0.8
v -1.2 4 0.7
v -1.2 4 -0.7
v -1.1 1.7 0.8
v -1.1 1.7 -0.8
v -1.1 1.8 0.8
v -1.1 1.8 -0.8
v -1.1 1.8 -0.9
v -1.1 1.9 0.9
v -1.1 1.9 0.8
v -1.1 2.6 -0.8
v -1.1 2.6 -0.9
v -1.1 2.7 0.9
v -1.1 2.7 0.8
v -1.1 2.7 0.7
v -1.1 2.7 -0.7
v -1.1 2.7 -0.8
v -1.1 4 0.7
v -1.1 4 -0.7
v -1.1 4.1 0.8
v -1.1 4.1 -0.8
v -1 2.6 -0.8
v -1 2.6 -0.9
v -1 2.7 0.9
v -1 2.7 0.8
v -1 2.7 -0.8
v -1 2.7 -0.9
v -1 4.1 0.8
v -1 4.1 -0.8
v -1 4.2 0.9
v -1 4.2 -0.9
v -0.9 1.8 0.9
v -0.9 1.8 0.8
v -0.9 1.8 -0.9
v -0.9 1.8 -1
v -0.9 1.9 0.9
v -0.9 1.9 0.8
v -0.9 1.9 -1
v -0.9 1.9 -1.1
v -0.9 2 1
v -0.9 2 0.9
v -0.9 2.7 1
v -0.9 2.7 0.9
v -0.9 2.7 -0.9
v -0.9 2.7 -1
v -0.9 2.7 -1.1
v -0.9 4.1 1
v -0.9 4.1 0.9
v -0.9 4.1 -0.9
v -0.9 4.1 -1
v -0.9 4.2 0.9
v -0.9 4.2 -0.9
v -0.9 4.3 0.9
v -0.9 4.3 -0.9
v -0.8 1.6 0.7
v -0.8 1.6 -0.8
v -0.8 1.7 0.7
v -0.8 1.7 -0.8
v -0.8 1.9 1
v -0.8 1.9 0.9
v -0.8 1.9 -1.1
v -0.8 1.9 -1.2
v -0.8 2 1.1
v -0.8 2 1
v -0.8 2 0.9
v -0.8 2.7 1.1
v -0.8 2.7 1
v -0.8 2.7 -1
v -0.8 2.7 -1.1
v -0.8 2.7 -1.2
v -0.8 3.8 1.3
v -0.8 3.8 1.2
v -0.8 4 1.3
v -0.8 4 1.2
v -0.8 4.1 1.1
v -0.8 4.1 1
v -0.8 4.1 0.9
v -0.8 4.1 -0.9
v -0.8 4.1 -1
v -0.8 4.1 -1.1
v -0.8 4.2 1
v -0.8 4.2 0.9
v -0.8 4.2 -0.9
v -0.8 4.2 -1
v -0.8 4.3 0.8
v -0.8 4.3 -0.8
v -0.8 4.4 0.8
v -0.8 4.4 -0.8
v -0.7 1 0.5
v -0.7 1 -0.4
v -0.7 1.1 0.5
v -0.7 1.1 -0.4
v -0.7 1.6 0.8
v -0.7 1.6 0.7
v -0.7 1.6 -0.8
v -0.7 1.6 -0.9
v -0.7 1.7 0.8
v -0.7 1.7 0.7
v -0.7 1.7 -0.8
v -0.7 1.7 -0.9
v -0.7 3.7 1.3
v -0.7 3.7 1.2
v -0.7 3.8 1.3
v -0.7 3.8 1.2
v -0.7 4.4 0.7
v -0.7 4.4 -0.7
v -0.7 4.5 0.7
v -0.7 4.5 -0.7
v -0.6 1 0.6
v -0.6 1 0.5
v -0.6 1.1 0.6
v -0.6 1.1 0.5
v -0.6 1.1 0.4
v -0.6 1.1 -0.3
v -0.6 1.6 0.4
v -0.6 1.6 -0.3
v -0.6 2.1 -1.2
v -0.6 2.1 -1.4
v -0.6 2.2 1.2
v -0.6 2.2 1.1
v -0.6 2.6 1.3
v -0.6 2.6 1.2
v -0.6 2.7 1.3
v -0.6 2.7 1.2
v -0.6 2.7 1.1
v -0.6 2.7 -1.1
v -0.6 2.7 -1.2
v -0.6 2.7 -1.4
v -0.6 2.8 1.3
v -0.6 2.8 1.2
v -0.6 3 1.3
v -0.6 3 1.2
v -0.6 3.4 1.3
v -0.6 3.4 1.2
v -0.6 3.7 1.3
v -0.6 3.7 1.2
v -0.6 3.9 -1.1
v -0.6 3.9 -1.2
v -0.6 4 1.2
v -0.6 4 1.1
v -0.5 2.6 1.4
v -0.5 2.6 1.3
v -0.5 2.7 1.4
v -0.5 2.7 1.3
v -0.5 2.8 1.4
v -0.5 2.8 1.3
v -0.5 3 1.3
v -0.5 3 1.2
v -0.5 3.1 1.4
v -0.5 3.1 1.3
v -0.5 3.2 1.3
v -0.5 3.2 1.2
v -0.4 2.1 -1.4
v -0.4 2.1 -1.5
v -0.4 2.5 1.4
v -0.4 2.5 1.2
v -0.4 2.6 1.5
v -0.4 2.6 1.4
v -0.4 2.6 1.2
v -0.4 2.7 1.5
v -0.4 2.7 1.4
v -0.4 2.7 -1.2
v -0.4 2.7 -1.3
v -0.4 2.7 -1.4
v -0.4 2.7 -1.5
v -0.4 2.8 1.5
v -0.4 2.8 1.4
v -0.4 3 1.5
v -0.4 3 1.4
v -0.4 3.1 1.4
v -0.4 3.1 1.3
v -0.4 3.2 1.4
v -0.4 3.2 1.3
v -0.4 3.2 1.2
v -0.4 3.3 1.3
v -0.4 3.3 1.2
v -0.4 3.6 -1.2
v -0.4 3.6 -1.3
v -0.3 3 1.5
v -0.3 3 1.4
v -0.3 3.1 1.5
v -0.3 3.1 1.4
v -0.2 2.7 -1.3
v -0.2 2.7 -1.4
v -0.2 3.2 -1.3
v -0.2 3.2 -1.4
v -0.1 2.2 -1.5
v -0.1 2.2 -1.6
v -0.1 2.3 -1.6
v -0.1 2.3 -1.7
v -0.1 2.4 -1.7
v -0.1 2.4 -1.8
v -0.1 2.5 -1.5
v -0.1 2.5 -1.6
v -0.1 2.6 -1.6
v -0.1 2.6 -1.8
v -0.1 4.5 0.2
v -0.1 4.5 -0.3
v -0.1 4.6 0.2
v -0.1 4.6 0.1
v -0.1 4.6 -0.3
v -0.1 4.6 -0.4
v -0.1 4.7 0.1
v -0.1 4.7 0
v -0.1 4.7 -0.4
v -0.1 4.7 -0.5
v -0.1 4.9 0
v -0.1 4.9 -0.5
v 0.1 1 0.5
v 0.1 1 -0.4
v 0.1 1.1 0.5
v 0.1 1.1 -0.4
v 0.1 2.2 -1.2
v 0.1 2.2 -1.3
v 0.1 2.6 -1.2
v 0.1 2.6 -1.3
v 0.1 3.4 1.3
v 0.1 3.4 1.2
v 0.1 3.7 1.3
v 0.1 3.7 1.2
v 0.1 3.9 1.3
v 0.1 3.9 1.2
v 0.1 4.5 -0.3
v 0.1 4.5 -0.6
v 0.1 4.6 -0.3
v 0.1 4.6 -0.4
v 0.1 4.6 -0.6
v 0.1 4.6 -0.7
v 0.1 4.7 -0.4
v 0.1 4.7 -0.5
v 0.1 4.8 -0.5
v 0.1 4.8 -0.7
v 0.2 1 0.6
v 0.2 1 0.5
v 0.2 1.1 0.6
v 0.2 1.1 0.5
v 0.2 1.1 0.4
v 0.2 1.1 -0.3
v 0.2 1.6 0.4
v 0.2 1.6 -0.3
v 0.5 3.9 1.3
v 0.5 3.9 1.2
v 0.5 4 1.3
v 0.5 4 1.2
v -0.5 3.9 1.3
v -0.5 3.9 1.2
v -0.5 4 1.3
v -0.5 4 1.2
v -0.2 1 0.6
v -0.2 1 0.5
v -0.2 1.1 0.6
v -0.2 1.1 0.5
v -0.2 1.1 0.4
v -0.2 1.1 -0.3
v -0.2 1.6 0.4
v -0.2 1.6 -0.3
v -0.1 1 0.5
v -0.1 1 -0.4
v -0.1 1.1 0.5
v -0.1 1.1 -0.4
v -0.1 2.2 -1.2
v -0.1 2.2 -1.3
v -0.1 2.6 -1.2
v -0.1 2.6 -1.3
v -0.1 3.4 1.3
v -0.1 3.4 1.2
v -0.1 3.7 1.3
v -0.1 3.7 1.2
v -0.1 3.9 1.3
v -0.1 3.9 1.2
v 0.1 2.2 -1.5
v 0.1 2.2 -1.6
v 0.1 2.3 -1.6
v 0.1 2.3 -1.7
v 0.1 2.4 -1.7
v 0.1 2.4 -1.8
v 0.1 2.5 -1.5
v 0.1 2.5 -1.6
v 0.1 2.6 -1.6
v 0.1 2.6 -1.8
v 0.1 4.5 0.2
v 0.1 4.5 -0.1
v 0.1 4.6 0.2
v 0.1 4.6 0.1
v 0.1 4.6 -0.1
v 0.1 4.6 -0.2
v 0.1 4.7 0.1
v 0.1 4.7 0
v 0.1 4.8 -0.2
v 0.1 4.8 -0.5
v 0.1 4.9 0
v 0.1 4.9 -0.5
v 0.2 2.7 -1.3
v 0.2 2.7 -1.4
v 0.2 3.2 -1.3
v 0.2 3.2 -1.4
v 0.3 3 1.5
v 0.3 3 1.4
v 0.3 3.1 1.5
v 0.3 3.1 1.4
v 0.3 4.5 -0.1
v 0.3 4.5 -0.6
v 0.3 4.6 -0.1
v 0.3 4.6 -0.2
v 0.3 4.6 -0.6
v 0.3 4.6 -0.7
v 0.3 4.8 -0.2
v 0.3 4.8 -0.7
v 0.4 2.1 -1.4
v 0.4 2.1 -1.5
v 0.4 2.5 1.4
v 0.4 2.5 1.2
v 0.4 2.6 1.5
v 0.4 2.6 1.4
v 0.4 2.6 1.2
v 0.4 2.7 1.5
v 0.4 2.7 1.4
v 0.4 2.7 -1.2
v 0.4 2.7 -1.3
v 0.4 2.7 -1.4
v 0.4 2.7 -1.5
v 0.4 2.8 1.5
v 0.4 2.8 1.4
v 0.4 3 1.5
v 0.4 3 1.4
v 0.4 3.1 1.4
v 0.4 3.1 1.3
v 0.4 3.2 1.4
v 0.4 3.2 1.3
v 0.4 3.2 1.2
v 0.4 3.3 1.3
v 0.4 3.3 1.2
v 0.4 3.6 -1.2
v 0.4 3.6 -1.3
v 0.5 2.6 1.4
v 0.5 2.6 1.3
v 0.5 2.7 1.4
v 0.5 2.7 1.3
v 0.5 2.8 1.4
v 0.5 2.8 1.3
v 0.5 3 1.3
v 0.5 3 1.2
v 0.5 3.1 1.4
v 0.5 3.1 1.3
v 0.5 3.2 1.3
v 0.5 3.2 1.2
v 0.6 1 0.6
v 0.6 1 0.5
v 0.6 1.1 0.6
v 0.6 1.1 0.5
v 0.6 1.1 0.4
v 0.6 1.1 -0.3
v 0.6 1.6 0.4
v 0.6 1.6 -0.3
v 0.6 2.1 -1.2
v 0.6 2.1 -1.4
v 0.6 2.2 1.2
v 0.6 2.2 1.1
v 0.6 2.6 1.3
v 0.6 2.6 1.2
v 0.6 2.7 1.3
v 0.6 2.7 1.2
v 0.6 2.7 1.1
v 0.6 2.7 -1.1
v 0.6 2.7 -1.2
v 0.6 2.7 -1.4
v 0.6 2.8 1.3
v 0.6 2.8 1.2
v 0.6 3 1.3
v 0.6 3 1.2
v 0.6 3.4 1.3
v 0.6 3.4 1.2
v 0.6 3.7 1.3
v 0.6 3.7 1.2
v 0.6 3.9 -1.1
v 0.6 3.9 -1.2
v 0.6 4 1.2
v 0.6 4 1.1
v 0.7 1 0.5
v 0.7 1 -0.4
v 0.7 1.1 0.5
v 0.7 1.1 -0.4
v 0.7 1.6 0.8
v 0.7 1.6 0.7
v 0.7 1.6 -0.8
v 0.7 1.6 -0.9
v 0.7 1.7 0.8
v 0.7 1.7 0.7
v 0.7 1.7 -0.8
v 0.7 1.7 -0.9
v 0.7 3.7 1.3
v 0.7 3.7 1.2
v 0.7 3.8 1.3
v 0.7 3.8 1.2
v 0.7 4.4 0.7
v 0.7 4.4 -0.7
v 0.7 4.5 0.7
v 0.7 4.5 -0.7
v 0.8 1.6 0.7
v 0.8 1.6 -0.8
v 0.8 1.7 0.7
v 0.8 1.7 -0.8
v 0.8 1.9 1
v 0.8 1.9 0.9
v 0.8 1.9 -1.1
v 0.8 1.9 -1.2
v 0.8 2 1.1
v 0.8 2 1
v 0.8 2 0.9
v 0.8 2.7 1.1
v 0.8 2.7 1
v 0.8 2.7 -1
v 0.8 2.7 -1.1
v 0.8 2.7 -1.2
v 0.8 3.8 1.3
v 0.8 3.8 1.2
v 0.8 4 1.3
v 0.8 4 1.2
v 0.8 4.1 1.1
v 0.8 4.1 1
v 0.8 4.1 0.9
v 0.8 4.1 -0.9
v 0.8 4.1 -1
v 0.8 4.1 -1.1
v 0.8 4.2 1
v 0.8 4.2 0.9
v 0.8 4.2 -0.9
v 0.8 4.2 -1
v 0.8 4.3 0.8
v 0.8 4.3 -0.8
v 0.8 4.4 0.8
v 0.8 4.4 -0.8
v 0.9 1.8 0.9
v 0.9 1.8 0.8
v 0.9 1.8 -0.9
v 0.9 1.8 -1
v 0.9 1.9 0.9
v 0.9 1.9 0.8
v 0.9 1.9 -1
v 0.9 1.9 -1.1
v 0.9 2 1
v 0.9 2 0.9
v 0.9 2.7 1
v 0.9 2.7 0.9
v 0.9 2.7 -0.9
v 0.9 2.7 -1
v 0.9 2.7 -1.1
v 0.9 4.1 1
v 0.9 4.1 0.9
v 0.9 4.1 -0.9
v 0.9 4.1 -1
v 0.9 4.2 0.9
v 0.9 4.2 -0.9
v 0.9 4.3 0.9
v 0.9 4.3 -0.9
v 1 1.8 -0.8
v 1 1.8 -0.9
v 1 1.9 -0.8
v 1 1.9 -0.9
v 1 2.7 0.9
v 1 2.7 0.8
v 1 2.7 -0.8
v 1 2.7 -0.9
v 1 4.1 0.8
v 1 4.1 -0.8
v 1 4.2 0.9
v 1 4.2 -0.9
v 1.1 1.9 0.9
v 1.1 1.9 0.8
v 1.1 1.9 -0.8
v 1.1 1.9 -0.9
v 1.1 2.7 0.9
v 1.1 2.7 0.8
v 1.1 2.7 0.7
v 1.1 2.7 -0.7
v 1.1 2.7 -0.8
v 1.1 2.7 -0.9
v 1.1 4 0.7
v 1.1 4 -0.7
v 1.1 4.1 0.8
v 1.1 4.1 -0.8
v 1.2 1.7 0.8
v 1.2 1.7 -0.8
v 1.2 1.9 0.7
v 1.2 1.9 -0.7
v 1.2 2.7 0.8
v 1.2 2.7 0.7
v 1.2 2.7 -0.7
v 1.2 2.7 -0.8
v 1.2 4 0.7
v 1.2 4 -0.7
v 1.3 1.9 0.7
v 1.3 1.9 -0.7
v 1.3 2 0.5
v 1.3 2 -0.7
v 1.3 2.5 0.5
v 1.3 2.5 -0.7
v 1.3 2.7 0.7
v 1.3 2.7 -0.7
v 1.4 2 0.5
v 1.4 2 -0.7
v 1.4 2.5 0.5
v 1.4 2.5 -0.7
v -0.4 2.6 1.5
v -0.4 2.7 1.5
v -0.4 2.8 1.5
v -0.4 3 1.5
v -0.3 3 1.5
v -0.3 3.1 1.5
v -0.2 2.6 1.5
v -0.2 2.7 1.5
v -0.2 2.8 1.5
v 0.2 2.6 1.5
v 0.2 2.7 1.5
v 0.2 2.8 1.5
v 0.3 3 1.5
v 0.3 3.1 1.5
v 0.4 2.6 1.5
v 0.4 2.7 1.5
v 0.4 2.8 1.5
v 0.4 3 1.5
v -0.5 2.6 1.4
v -0.5 2.7 1.4
v -0.5 2.8 1.4
v -0.5 3.1 1.4
v -0.4 2.5 1.4
v -0.4 2.6 1.4
v -0.4 2.7 1.4
v -0.4 2.8 1.4
v -0.4 3 1.4
v -0.4 3.1 1.4
v -0.4 3.2 1.4
v -0.3 3 1.4
v -0.3 3.1 1.4
v -0.2 2.6 1.4
v 0.2 2.6 1.4
v 0.3 3 1.4
v 0.3 3.1 1.4
v 0.4 2.5 1.4
v 0.4 2.6 1.4
v 0.4 2.7 1.4
v 0.4 2.8 1.4
v 0.4 3 1.4
v 0.4 3.1 1.4
v 0.4 3.2 1.4
v 0.5 2.6 1.4
v 0.5 2.7 1.4
v 0.5 2.8 1.4
v 0.5 3.1 1.4
v -0.8 3.8 1.3
v -0.8 4 1.3
v -0.7 3.7 1.3
v -0.7 3.8 1.3
v -0.6 2.6 1.3
v -0.6 2.7 1.3
v -0.6 2.8 1.3
v -0.6 3 1.3
v -0.6 3.4 1.3
v -0.6 3.7 1.3
v -0.5 2.6 1.3
v -0.5 2.7 1.3
v -0.5 2.8 1.3
v -0.5 3 1.3
v -0.5 3.1 1.3
v -0.5 3.2 1.3
v -0.5 3.9 1.3
v -0.5 4 1.3
v -0.4 3.1 1.3
v -0.4 3.2 1.3
v -0.4 3.3 1.3
v -0.4 3.5 1.3
v -0.4 3.7 1.3
v -0.2 3.5 1.3
v -0.2 3.7 1.3
v -0.1 3.4 1.3
v -0.1 3.7 1.3
v -0.1 3.9 1.3
v 0.1 3.4 1.3
v 0.1 3.7 1.3
v 0.1 3.9 1.3
v 0.2 3.5 1.3
v 0.2 3.7 1.3
v 0.4 3.1 1.3
v 0.4 3.2 1.3
v 0.4 3.3 1.3
v 0.4 3.5 1.3
v 0.4 3.7 1.3
v 0.5 2.6 1.3
v 0.5 2.7 1.3
v 0.5 2.8 1.3
v 0.5 3 1.3
v 0.5 3.1 1.3
v 0.5 3.2 1.3
v 0.5 3.9 1.3
v 0.5 4 1.3
v 0.6 2.6 1.3
v 0.6 2.7 1.3
v 0.6 2.8 1.3
v 0.6 3 1.3
v 0.6 3.4 1.3
v 0.6 3.7 1.3
v 0.7 3.7 1.3
v 0.7 3.8 1.3
v 0.8 3.8 1.3
v 0.8 4 1.3
v -0.6 2.2 1.2
v -0.6 2.6 1.2
v -0.6 3 1.2
v -0.6 3.4 1.2
v -0.5 3 1.2
v -0.5 3.2 1.2
v -0.5 3.9 1.2
v -0.5 4 1.2
v -0.4 2.5 1.2
v -0.4 2.6 1.2
v -0.4 3.2 1.2
v -0.4 3.3 1.2
v -0.1 3.4 1.2
v -0.1 3.7 1.2
v -0.1 3.9 1.2
v 0.1 3.4 1.2
v 0.1 3.7 1.2
v 0.1 3.9 1.2
v 0.4 2.5 1.2
v 0.4 2.6 1.2
v 0.4 3.2 1.2
v 0.4 3.3 1.2
v 0.5 3 1.2
v 0.5 3.2 1.2
v 0.5 3.9 1.2
v 0.5 4 1.2
v 0.6 2.2 1.2
v 0.6 2.6 1.2
v 0.6 3 1.2
v 0.6 3.4 1.2
v -0.8 2 1.1
v -0.8 2.7 1.1
v -0.8 4.1 1.1
v -0.6 2.2 1.1
v -0.6 2.7 1.1
v -0.6 4 1.1
v 0.6 2.2 1.1
v 0.6 2.7 1.1
v 0.6 4 1.1
v 0.8 2 1.1
v 0.8 2.7 1.1
v 0.8 4.1 1.1
v -0.9 2 1
v -0.9 2.7 1
v -0.9 4.1 1
v -0.8 1.9 1
v -0.8 2 1
v -0.8 2.7 1
v -0.8 4.1 1
v -0.8 4.2 1
v 0.8 1.9 1
v 0.8 2 1
v 0.8 2.7 1
v 0.8 4.1 1
v 0.8 4.2 1
v 0.9 2 1
v 0.9 2.7 1
v 0.9 4.1 1
v -1.1 1.9 0.9
v -1.1 2.7 0.9
v -1 2.7 0.9
v -1 4.2 0.9
v -0.9 1.8 0.9
v -0.9 1.9 0.9
v -0.9 2 0.9
v -0.9 2.7 0.9
v -0.9 4.1 0.9
v -0.9 4.2 0.9
v -0.9 4.3 0.9
v -0.8 1.9 0.9
v -0.8 2 0.9
v -0.8 4.1 0.9
v -0.8 4.2 0.9
v 0.8 1.9 0.9
v 0.8 2 0.9
v 0.8 4.1 0.9
v 0.8 4.2 0.9
v 0.9 1.8 0.9
v 0.9 1.9 0.9
v 0.9 2 0.9
v 0.9 2.7 0.9
v 0.9 4.1 0.9
v 0.9 4.2 0.9
v 0.9 4.3 0.9
v 1 2.7 0.9
v 1 4.2 0.9
v 1.1 1.9 0.9
v 1.1 2.7 0.9
v -1.2 1.8 0.8
v -1.2 2.7 0.8
v -1.1 1.7 0.8
v -1.1 1.8 0.8
v -1.1 1.9 0.8
v -1.1 2.7 0.8
v -1.1 4.1 0.8
v -1 2.7 0.8
v -1 4.1 0.8
v -0.9 1.8 0.8
v -0.9 1.9 0.8
v -0.8 4.3 0.8
v -0.8 4.4 0.8
v -0.7 1.6 0.8
v -0.7 1.7 0.8
v 0.7 1.6 0.8
v 0.7 1.7 0.8
v 0.8 4.3 0.8
v 0.8 4.4 0.8
v 0.9 1.8 0.8
v 0.9 1.9 0.8
v 1 2.7 0.8
v 1 4.1 0.8
v 1.1 1.9 0.8
v 1.1 2.7 0.8
v 1.1 4.1 0.8
v 1.2 1.7 0.8
v 1.2 2.7 0.8
v -1.3 1.9 0.7
v -1.3 2.7 0.7
v -1.2 1.9 0.7
v -1.2 2.7 0.7
v -1.2 4 0.7
v -1.1 2.7 0.7
v -1.1 4 0.7
v -0.8 1.6 0.7
v -0.8 1.7 0.7
v -0.7 1.6 0.7
v -0.7 1.7 0.7
v -0.7 4.4 0.7
v -0.7 4.5 0.7
v 0.7 1.6 0.7
v 0.7 1.7 0.7
v 0.7 4.4 0.7
v 0.7 4.5 0.7
v 0.8 1.6 0.7
v 0.8 1.7 0.7
v 1.1 2.7 0.7
v 1.1 4 0.7
v 1.2 1.9 0.7
v 1.2 2.7 0.7
v 1.2 4 0.7
v 1.3 1.9 0.7
v 1.3 2.7 0.7
v -0.6 1 0.6
v -0.6 1.1 0.6
v -0.2 1 0.6
v -0.2 1.1 0.6
v 0.2 1 0.6
v 0.2 1.1 0.6
v 0.6 1 0.6
v 0.6 1.1 0.6
v -1.4 2 0.5
v -1.4 2.5 0.5
v -1.3 2 0.5
v -1.3 2.5 0.5
v -0.7 1 0.5
v -0.7 1.1 0.5
v -0.6 1 0.5
v -0.6 1.1 0.5
v -0.2 1 0.5
v -0.2 1.1 0.5
v -0.1 1 0.5
v -0.1 1.1 0.5
v 0.1 1 0.5
v 0.1 1.1 0.5
v 0.2 1 0.5
v 0.2 1.1 0.5
v 0.6 1 0.5
v 0.6 1.1 0.5
v 0.7 1 0.5
v 0.7 1.1 0.5
v 1.3 2 0.5
v 1.3 2.5 0.5
v 1.4 2 0.5
v 1.4 2.5 0.5
v -0.6 1.1 0.4
v -0.6 1.6 0.4
v -0.2 1.1 0.4
v -0.2 1.6 0.4
v 0.2 1.1 0.4
v 0.2 1.6 0.4
v 0.6 1.1 0.4
v 0.6 1.6 0.4
v -0.1 4.5 0.2
v -0.1 4.6 0.2
v 0.1 4.5 0.2
v 0.1 4.6 0.2
v -0.1 4.6 0.1
v -0.1 4.7 0.1
v 0.1 4.6 0.1
v 0.1 4.7 0.1
v -0.1 4.7 0
v -0.1 4.9 0
v 0.1 4.7 0
v 0.1 4.9 0
v 0.1 4.5 -0.1
v 0.1 4.6 -0.1
v 0.3 4.5 -0.1
v 0.3 4.6 -0.1
v 0.1 4.6 -0.2
v 0.1 4.8 -0.2
v 0.3 4.6 -0.2
v 0.3 4.8 -0.2
v -0.1 2.2 -1.3
v -0.1 2.6 -1.3
v 0.1 2.2 -1.3
v 0.1 2.6 -1.3
v -0.1 2.5 -1.6
v -0.1 2.6 -1.6
v 0.1 2.5 -1.6
v 0.1 2.6 -1.6
v -0.8 3.8 1.2
v -0.8 4 1.2
v -0.7 3.7 1.2
v -0.7 3.8 1.2
v -0.6 3.7 1.2
v -0.6 4 1.2
v 0.6 3.7 1.2
v 0.6 4 1.2
v 0.7 3.7 1.2
v 0.7 3.8 1.2
v 0.8 3.8 1.2
v 0.8 4 1.2
v -0.6 1.1 -0.3
v -0.6 1.6 -0.3
v -0.2 1.1 -0.3
v -0.2 1.6 -0.3
v -0.1 4.5 -0.3
v -0.1 4.6 -0.3
v 0.1 4.5 -0.3
v 0.1 4.6 -0.3
v 0.2 1.1 -0.3
v 0.2 1.6 -0.3
v 0.6 1.1 -0.3
v 0.6 1.6 -0.3
v -0.7 1 -0.4
v -0.7 1.1 -0.4
v -0.1 1 -0.4
v -0.1 1.1 -0.4
v -0.1 4.6 -0.4
v -0.1 4.7 -0.4
v 0.1 1 -0.4
v 0.1 1.1 -0.4
v 0.1 4.6 -0.4
v 0.1 4.7 -0.4
v 0.7 1 -0.4
v 0.7 1.1 -0.4
v -0.1 4.7 -0.5
v -0.1 4.9 -0.5
v 0.1 4.7 -0.5
v 0.1 4.8 -0.5
v 0.1 4.9 -0.5
v 0.1 4.5 -0.6
v 0.1 4.6 -0.6
v 0.3 4.5 -0.6
v 0.3 4.6 -0.6
v -1.4 2 -0.7
v -1.4 2.5 -0.7
v -1.3 1.9 -0.7
v -1.3 2 -0.7
v -1.3 2.5 -0.7
v -1.3 2.7 -0.7
v -1.2 1.9 -0.7
v -1.2 2.7 -0.7
v -1.2 4 -0.7
v -1.1 2.7 -0.7
v -1.1 4 -0.7
v -0.7 4.4 -0.7
v -0.7 4.5 -0.7
v 0.1 4.6 -0.7
v 0.1 4.8 -0.7
v 0.3 4.6 -0.7
v 0.3 4.8 -0.7
v 0.7 4.4 -0.7
v 0.7 4.5 -0.7
v 1.1 2.7 -0.7
v 1.1 4 -0.7
v 1.2 1.9 -0.7
v 1.2 2.7 -0.7
v 1.2 4 -0.7
v 1.3 1.9 -0.7
v 1.3 2 -0.7
v 1.3 2.5 -0.7
v 1.3 2.7 -0.7
v 1.4 2 -0.7
v 1.4 2.5 -0.7
v -1.2 1.8 -0.8
v -1.2 2.7 -0.8
v -1.1 1.7 -0.8
v -1.1 1.8 -0.8
v -1.1 2.6 -0.8
v -1.1 2.7 -0.8
v -1.1 4.1 -0.8
v -1 2.6 -0.8
v -1 2.7 -0.8
v -1 4.1 -0.8
v -0.8 1.6 -0.8
v -0.8 1.7 -0.8
v -0.8 4.3 -0.8
v -0.8 4.4 -0.8
v -0.7 1.6 -0.8
v -0.7 1.7 -0.8
v 0.7 1.6 -0.8
v 0.7 1.7 -0.8
v 0.8 1.6 -0.8
v 0.8 1.7 -0.8
v 0.8 4.3 -0.8
v 0.8 4.4 -0.8
v 1 1.8 -0.8
v 1 1.9 -0.8
v 1 2.7 -0.8
v 1 4.1 -0.8
v 1.1 1.9 -0.8
v 1.1 2.7 -0.8
v 1.1 4.1 -0.8
v 1.2 1.7 -0.8
v 1.2 2.7 -0.8
v -1.1 1.8 -0.9
v -1.1 2.6 -0.9
v -1 2.6 -0.9
v -1 2.7 -0.9
v -1 4.2 -0.9
v -0.9 1.8 -0.9
v -0.9 2.7 -0.9
v -0.9 4.1 -0.9
v -0.9 4.2 -0.9
v -0.9 4.3 -0.9
v -0.8 4.1 -0.9
v -0.8 4.2 -0.9
v -0.7 1.6 -0.9
v -0.7 1.7 -0.9
v 0.7 1.6 -0.9
v 0.7 1.7 -0.9
v 0.8 4.1 -0.9
v 0.8 4.2 -0.9
v 0.9 1.8 -0.9
v 0.9 2.7 -0.9
v 0.9 4.1 -0.9
v 0.9 4.2 -0.9
v 0.9 4.3 -0.9
v 1 1.8 -0.9
v 1 1.9 -0.9
v 1 2.7 -0.9
v 1 4.2 -0.9
v 1.1 1.9 -0.9
v 1.1 2.7 -0.9
v -0.9 1.8 -1
v -0.9 1.9 -1
v -0.9 2.7 -1
v -0.9 4.1 -1
v -0.8 2.7 -1
v -0.8 4.1 -1
v -0.8 4.2 -1
v 0.8 2.7 -1
v 0.8 4.1 -1
v 0.8 4.2 -1
v 0.9 1.8 -1
v 0.9 1.9 -1
v 0.9 2.7 -1
v 0.9 4.1 -1
v -0.9 1.9 -1.1
v -0.9 2.7 -1.1
v -0.8 1.9 -1.1
v -0.8 2.7 -1.1
v -0.8 4.1 -1.1
v -0.6 2.7 -1.1
v -0.6 3.9 -1.1
v 0.6 2.7 -1.1
v 0.6 3.9 -1.1
v 0.8 1.9 -1.1
v 0.8 2.7 -1.1
v 0.8 4.1 -1.1
v 0.9 1.9 -1.1
v 0.9 2.7 -1.1
v -0.8 1.9 -1.2
v -0.8 2.7 -1.2
v -0.6 2.1 -1.2
v -0.6 2.7 -1.2
v -0.6 3.9 -1.2
v -0.4 2.7 -1.2
v -0.4 3.6 -1.2
v -0.1 2.2 -1.2
v -0.1 2.6 -1.2
v 0.1 2.2 -1.2
v 0.1 2.6 -1.2
v 0.4 2.7 -1.2
v 0.4 3.6 -1.2
v 0.6 2.1 -1.2
v 0.6 2.7 -1.2
v 0.6 3.9 -1.2
v 0.8 1.9 -1.2
v 0.8 2.7 -1.2
v -0.4 2.7 -1.3
v -0.4 3.6 -1.3
v -0.2 2.7 -1.3
v -0.2 3.2 -1.3
v 0.2 2.7 -1.3
v 0.2 3.2 -1.3
v 0.4 2.7 -1.3
v 0.4 3.6 -1.3
v -0.6 2.1 -1.4
v -0.6 2.7 -1.4
v -0.4 2.1 -1.4
v -0.4 2.7 -1.4
v -0.2 2.7 -1.4
v -0.2 3.2 -1.4
v 0.2 2.7 -1.4
v 0.2 3.2 -1.4
v 0.4 2.1 -1.4
v 0.4 2.7 -1.4
v 0.6 2.1 -1.4
v 0.6 2.7 -1.4
v -0.4 2.1 -1.5
v -0.4 2.7 -1.5
v -0.1 2.2 -1.5
v -0.1 2.5 -1.5
v 0.1 2.2 -1.5
v 0.1 2.5 -1.5
v 0.4 2.1 -1.5
v 0.4 2.7 -1.5
v -0.1 2.2 -1.6
v -0.1 2.3 -1.6
v 0.1 2.2 -1.6
v 0.1 2.3 -1.6
v -0.1 2.3 -1.7
v -0.1 2.4 -1.7
v 0.1 2.3 -1.7
v 0.1 2.4 -1.7
v -0.1 2.4 -1.8
v -0.1 2.6 -1.8
v 0.1 2.4 -1.8
v 0.1 2.6 -1.8
v -0.6 1 0.6
v -0.2 1 0.6
v 0.2 1 0.6
v 0.6 1 0.6
v -0.7 1 0.5
v -0.6 1 0.5
v -0.2 1 0.5
v -0.1 1 0.5
v 0.1 1 0.5
v 0.2 1 0.5
v 0.6 1 0.5
v 0.7 1 0.5
v -0.7 1 -0.4
v -0.1 1 -0.4
v 0.1 1 -0.4
v 0.7 1 -0.4
v -0.7 1.6 0.8
v 0.7 1.6 0.8
v -0.8 1.6 0.7
v -0.7 1.6 0.7
v 0.7 1.6 0.7
v 0.8 1.6 0.7
v -0.6 1.6 0.4
v -0.2 1.6 0.4
v 0.2 1.6 0.4
v 0.6 1.6 0.4
v -0.6 1.6 -0.3
v -0.2 1.6 -0.3
v 0.2 1.6 -0.3
v 0.6 1.6 -0.3
v -0.8 1.6 -0.8
v -0.7 1.6 -0.8
v 0.7 1.6 -0.8
v 0.8 1.6 -0.8
v -0.7 1.6 -0.9
v 0.7 1.6 -0.9
v -1.1 1.7 0.8
v -0.7 1.7 0.8
v 0.7 1.7 0.8
v 1.2 1.7 0.8
v -0.8 1.7 0.7
v -0.7 1.7 0.7
v 0.7 1.7 0.7
v 0.8 1.7 0.7
v -1.1 1.7 -0.8
v -0.8 1.7 -0.8
v 0.8 1.7 -0.8
v 1.2 1.7 -0.8
v -0.9 1.8 0.9
v 0.9 1.8 0.9
v -1.2 1.8 0.8
v -1.1 1.8 0.8
v -0.9 1.8 0.8
v 0.9 1.8 0.8
v -1.2 1.8 -0.8
v -1.1 1.8 -0.8
v 1 1.8 -0.8
v -1.1 1.8 -0.9
v -0.9 1.8 -0.9
v 0.9 1.8 -0.9
v 1 1.8 -0.9
v -0.9 1.8 -1
v 0.9 1.8 -1
v -0.8 1.9 1
v 0.8 1.9 1
v -1.1 1.9 0.9
v -0.9 1.9 0.9
v -0.8 1.9 0.9
v 0.8 1.9 0.9
v 0.9 1.9 0.9
v 1.1 1.9 0.9
v -1.1 1.9 0.8
v -0.9 1.9 0.8
v 0.9 1.9 0.8
v 1.1 1.9 0.8
v -1.3 1.9 0.7
v -1.2 1.9 0.7
v 1.2 1.9 0.7
v 1.3 1.9 0.7
v -1.3 1.9 -0.7
v -1.2 1.9 -0.7
v 1.2 1.9 -0.7
v 1.3 1.9 -0.7
v 1 1.9 -0.8
v 1.1 1.9 -0.8
v 1 1.9 -0.9
v 1.1 1.9 -0.9
v -0.9 1.9 -1
v 0.9 1.9 -1
v -0.9 1.9 -1.1
v -0.8 1.9 -1.1
v 0.8 1.9 -1.1
v 0.9 1.9 -1.1
v -0.8 1.9 -1.2
v 0.8 1.9 -1.2
v -0.8 2 1.1
v 0.8 2 1.1
v -0.9 2 1
v -0.8 2 1
v 0.8 2 1
v 0.9 2 1
v -0.9 2 0.9
v -0.8 2 0.9
v 0.8 2 0.9
v 0.9 2 0.9
v -1.4 2 0.5
v -1.3 2 0.5
v 1.3 2 0.5
v 1.4 2 0.5
v -1.4 2 -0.7
v -1.3 2 -0.7
v 1.3 2 -0.7
v 1.4 2 -0.7
v -0.6 2.1 -1.2
v 0.6 2.1 -1.2
v -0.6 2.1 -1.4
v -0.4 2.1 -1.4
v 0.4 2.1 -1.4
v 0.6 2.1 -1.4
v -0.4 2.1 -1.5
v 0.4 2.1 -1.5
v -0.6 2.2 1.2
v 0.6 2.2 1.2
v -0.6 2.2 1.1
v 0.6 2.2 1.1
v -0.1 2.2 -1.5
v 0.1 2.2 -1.5
v -0.1 2.2 -1.6
v 0.1 2.2 -1.6
v -0.1 2.3 -1.6
v 0.1 2.3 -1.6
v -0.1 2.3 -1.7
v 0.1 2.3 -1.7
v -0.1 2.4 -1.7
v 0.1 2.4 -1.7
v -0.1 2.4 -1.8
v 0.1 2.4 -1.8
v -0.4 2.5 1.4
v 0.4 2.5 1.4
v -0.4 2.5 1.2
v 0.4 2.5 1.2
v -0.4 2.6 1.5
v -0.2 2.6 1.5
v 0.2 2.6 1.5
v 0.4 2.6 1.5
v -0.5 2.6 1.4
v -0.4 2.6 1.4
v -0.2 2.6 1.4
v 0.2 2.6 1.4
v 0.4 2.6 1.4
v 0.5 2.6 1.4
v -0.6 2.6 1.3
v -0.5 2.6 1.3
v 0.5 2.6 1.3
v 0.6 2.6 1.3
v -0.6 2.6 1.2
v -0.4 2.6 1.2
v 0.4 2.6 1.2
v 0.6 2.6 1.2
v -0.1 2.6 -1.2
v 0.1 2.6 -1.2
v -0.1 2.6 -1.3
v 0.1 2.6 -1.3
v -0.6 3.4 1.3
v -0.1 3.4 1.3
v 0.1 3.4 1.3
v 0.6 3.4 1.3
v -0.6 3.4 1.2
v -0.1 3.4 1.2
v 0.1 3.4 1.2
v 0.6 3.4 1.2
v -0.7 3.7 1.3
v -0.6 3.7 1.3
v 0.6 3.7 1.3
v 0.7 3.7 1.3
v -0.7 3.7 1.2
v -0.6 3.7 1.2
v 0.6 3.7 1.2
v 0.7 3.7 1.2
v -0.8 3.8 1.3
v -0.7 3.8 1.3
v 0.7 3.8 1.3
v 0.8 3.8 1.3
v -0.8 3.8 1.2
v -0.7 3.8 1.2
v 0.7 3.8 1.2
v 0.8 3.8 1.2
v -0.1 4.6 -0.3
v 0.1 4.6 -0.3
v -0.1 4.6 -0.4
v 0.1 4.6 -0.4
v 0.1 4.6 -0.6
v 0.3 4.6 -0.6
v 0.1 4.6 -0.7
v 0.3 4.6 -0.7
v -0.1 4.7 -0.4
v 0.1 4.7 -0.4
v -0.1 4.7 -0.5
v 0.1 4.7 -0.5
v -0.6 1.1 0.6
v -0.2 1.1 0.6
v 0.2 1.1 0.6
v 0.6 1.1 0.6
v -0.7 1.1 0.5
v -0.6 1.1 0.5
v -0.2 1.1 0.5
v -0.1 1.1 0.5
v 0.1 1.1 0.5
v 0.2 1.1 0.5
v 0.6 1.1 0.5
v 0.7 1.1 0.5
v -0.6 1.1 0.4
v -0.2 1.1 0.4
v 0.2 1.1 0.4
v 0.6 1.1 0.4
v -0.6 1.1 -0.3
v -0.2 1.1 -0.3
v 0.2 1.1 -0.3
v 0.6 1.1 -0.3
v -0.7 1.1 -0.4
v -0.1 1.1 -0.4
v 0.1 1.1 -0.4
v 0.7 1.1 -0.4
v -0.7 1.7 -0.8
v 0.7 1.7 -0.8
v -0.7 1.7 -0.9
v 0.7 1.7 -0.9
v -0.1 2.2 -1.2
v 0.1 2.2 -1.2
v -0.1 2.2 -1.3
v 0.1 2.2 -1.3
v -1.4 2.5 0.5
v -1.3 2.5 0.5
v 1.3 2.5 0.5
v 1.4 2.5 0.5
v -1.4 2.5 -0.7
v -1.3 2.5 -0.7
v 1.3 2.5 -0.7
v 1.4 2.5 -0.7
v -0.1 2.5 -1.5
v 0.1 2.5 -1.5
v -0.1 2.5 -1.6
v 0.1 2.5 -1.6
v -1.1 2.6 -0.8
v -1 2.6 -0.8
v -1.1 2.6 -0.9
v -1 2.6 -0.9
v -0.1 2.6 -1.6
v 0.1 2.6 -1.6
v -0.1 2.6 -1.8
v 0.1 2.6 -1.8
v -1.1 2.7 0.9
v -1 2.7 0.9
v 1 2.7 0.9
v 1.1 2.7 0.9
v -1.2 2.7 0.8
v -1.1 2.7 0.8
v -1 2.7 0.8
v 1 2.7 0.8
v 1.1 2.7 0.8
v 1.2 2.7 0.8
v -1.3 2.7 0.7
v -1.2 2.7 0.7
v -1.1 2.7 0.7
v 1.1 2.7 0.7
v 1.2 2.7 0.7
v 1.3 2.7 0.7
v -1.3 2.7 -0.7
v -1.2 2.7 -0.7
v -1.1 2.7 -0.7
v 1.1 2.7 -0.7
v 1.2 2.7 -0.7
v 1.3 2.7 -0.7
v -1.2 2.7 -0.8
v -1.1 2.7 -0.8
v 1 2.7 -0.8
v 1.1 2.7 -0.8
v 1.2 2.7 -0.8
v 1 2.7 -0.9
v 1.1 2.7 -0.9
v -0.9 2.7 -1
v -0.8 2.7 -1
v 0.8 2.7 -1
v 0.9 2.7 -1
v -0.9 2.7 -1.1
v -0.8 2.7 -1.1
v -0.6 2.7 -1.1
v 0.6 2.7 -1.1
v 0.8 2.7 -1.1
v 0.9 2.7 -1.1
v -0.8 2.7 -1.2
v -0.6 2.7 -1.2
v -0.4 2.7 -1.2
v 0.4 2.7 -1.2
v 0.6 2.7 -1.2
v 0.8 2.7 -1.2
v -0.4 2.7 -1.3
v -0.2 2.7 -1.3
v 0.2 2.7 -1.3
v 0.4 2.7 -1.3
v -0.6 2.7 -1.4
v -0.4 2.7 -1.4
v -0.2 2.7 -1.4
v 0.2 2.7 -1.4
v 0.4 2.7 -1.4
v 0.6 2.7 -1.4
v -0.4 2.7 -1.5
v 0.4 2.7 -1.5
v -0.4 3 1.5
v -0.3 3 1.5
v 0.3 3 1.5
v 0.4 3 1.5
v -0.4 3 1.4
v -0.3 3 1.4
v 0.3 3 1.4
v 0.4 3 1.4
v -0.6 3 1.3
v -0.5 3 1.3
v 0.5 3 1.3
v 0.6 3 1.3
v -0.6 3 1.2
v -0.5 3 1.2
v 0.5 3 1.2
v 0.6 3 1.2
v -0.3 3.1 1.5
v 0.3 3.1 1.5
v -0.5 3.1 1.4
v -0.4 3.1 1.4
v -0.3 3.1 1.4
v 0.3 3.1 1.4
v 0.4 3.1 1.4
v 0.5 3.1 1.4
v -0.5 3.1 1.3
v -0.4 3.1 1.3
v 0.4 3.1 1.3
v 0.5 3.1 1.3
v -0.4 3.2 1.4
v 0.4 3.2 1.4
v -0.5 3.2 1.3
v -0.4 3.2 1.3
v 0.4 3.2 1.3
v 0.5 3.2 1.3
v -0.5 3.2 1.2
v -0.4 3.2 1.2
v 0.4 3.2 1.2
v 0.5 3.2 1.2
v -0.2 3.2 -1.3
v 0.2 3.2 -1.3
v -0.2 3.2 -1.4
v 0.2 3.2 -1.4
v -0.4 3.3 1.3
v 0.4 3.3 1.3
v -0.4 3.3 1.2
v 0.4 3.3 1.2
v -0.4 3.6 -1.2
v 0.4 3.6 -1.2
v -0.4 3.6 -1.3
v 0.4 3.6 -1.3
v -0.5 3.9 1.3
v -0.1 3.9 1.3
v 0.1 3.9 1.3
v 0.5 3.9 1.3
v -0.5 3.9 1.2
v -0.1 3.9 1.2
v 0.1 3.9 1.2
v 0.5 3.9 1.2
v -0.6 3.9 -1.1
v 0.6 3.9 -1.1
v -0.6 3.9 -1.2
v 0.6 3.9 -1.2
v -0.8 4 1.3
v -0.5 4 1.3
v 0.5 4 1.3
v 0.8 4 1.3
v -0.8 4 1.2
v -0.6 4 1.2
v -0.5 4 1.2
v 0.5 4 1.2
v 0.6 4 1.2
v 0.8 4 1.2
v -0.6 4 1.1
v 0.6 4 1.1
v -1.2 4 0.7
v -1.1 4 0.7
v 1.1 4 0.7
v 1.2 4 0.7
v -1.2 4 -0.7
v -1.1 4 -0.7
v 1.1 4 -0.7
v 1.2 4 -0.7
v -0.8 4.1 1.1
v 0.8 4.1 1.1
v -0.9 4.1 1
v -0.8 4.1 1
v 0.8 4.1 1
v 0.9 4.1 1
v -0.9 4.1 0.9
v -0.8 4.1 0.9
v 0.8 4.1 0.9
v 0.9 4.1 0.9
v -1.1 4.1 0.8
v -1 4.1 0.8
v 1 4.1 0.8
v 1.1 4.1 0.8
v -1.1 4.1 -0.8
v -1 4.1 -0.8
v 1 4.1 -0.8
v 1.1 4.1 -0.8
v -0.9 4.1 -0.9
v -0.8 4.1 -0.9
v 0.8 4.1 -0.9
v 0.9 4.1 -0.9
v -0.9 4.1 -1
v -0.8 4.1 -1
v 0.8 4.1 -1
v 0.9 4.1 -1
v -0.8 4.1 -1.1
v 0.8 4.1 -1.1
v -0.8 4.2 1
v 0.8 4.2 1
v -1 4.2 0.9
v -0.9 4.2 0.9
v -0.8 4.2 0.9
v 0.8 4.2 0.9
v 0.9 4.2 0.9
v 1 4.2 0.9
v -1 4.2 -0.9
v -0.9 4.2 -0.9
v -0.8 4.2 -0.9
v 0.8 4.2 -0.9
v 0.9 4.2 -0.9
v 1 4.2 -0.9
v -0.8 4.2 -1
v 0.8 4.2 -1
v -0.9 4.3 0.9
v 0.9 4.3 0.9
v -0.8 4.3 0.8
v 0.8 4.3 0.8
v -0.8 4.3 -0.8
v 0.8 4.3 -0.8
v -0.9 4.3 -0.9
v 0.9 4.3 -0.9
v -0.8 4.4 0.8
v 0.8 4.4 0.8
v -0.7 4.4 0.7
v 0.7 4.4 0.7
v -0.7 4.4 -0.7
v 0.7 4.4 -0.7
v -0.8 4.4 -0.8
v 0.8 4.4 -0.8
v -0.7 4.5 0.7
v 0.7 4.5 0.7
v -0.1 4.5 0.2
v 0.1 4.5 0.2
v 0.1 4.5 -0.1
v 0.3 4.5 -0.1
v -0.1 4.5 -0.3
v 0.1 4.5 -0.3
v 0.1 4.5 -0.6
v 0.3 4.5 -0.6
v -0.7 4.5 -0.7
v 0.7 4.5 -0.7
v -0.1 4.6 0.2
v 0.1 4.6 0.2
v -0.1 4.6 0.1
v 0.1 4.6 0.1
v 0.1 4.6 -0.1
v 0.3 4.6 -0.1
v 0.1 4.6 -0.2
v 0.3 4.6 -0.2
v -0.1 4.7 0.1
v 0.1 4.7 0.1
v -0.1 4.7 0
v 0.1 4.7 0
v 0.1 4.8 -0.2
v 0.3 4.8 -0.2
v 0.1 4.8 -0.5
v 0.1 4.8 -0.7
v 0.3 4.8 -0.7
v -0.1 4.9 0
v 0.1 4.9 0
v -0.1 4.9 -0.5
v 0.1 4.9 -0.5

# faces
f 3/2/1 2/2/1 1/2/1
f 4/2/1 2/2/1 3/2/1
f 7/2/1 6/2/1 5/2/1
f 8/2/1 6/2/1 7/2/1
f 9/2/1 7/2/1 5/2/1
f 11/2/1 9/2/1 5/2/1
f 11/2/1 10/2/1 9/2/1
f 12/2/1 10/2/1 11/2/1
f 15/2/1 14/2/1 13/2/1
f 16/2/1 14/2/1 15/2/1
f 17/2/1 15/2/1 13/2/1
f 18/2/1 15/2/1 17/2/1
f 19/2/1 14/2/1 16/2/1
f 20/2/1 14/2/1 19/2/1
f 21/4/1 19/4/1 18/4/1
f 22/4/1 19/4/1 21/4/1
f 25/2/1 24/2/1 23/2/1
f 26/2/1 24/2/1 25/2/1
f 30/2/1 27/2/1 26/2/1
f 31/2/1 27/2/1 30/2/1
f 32/2/1 29/2/1 28/2/1
f 33/2/1 29/2/1 32/2/1
f 37/4/1 34/4/1 33/4/1
f 38/4/1 36/4/1 35/4/1
f 39/4/1 37/4/1 33/4/1
f 39/4/1 38/4/1 37/4/1
f 40/4/1 36/4/1 38/4/1
f 40/4/1 38/4/1 39/4/1
f 45/2/1 42/2/1 41/2/1
f 46/2/1 42/2/1 45/2/1
f 47/4/1 44/4/1 43/4/1
f 48/4/1 46/4/1 45/4/1
f 49/4/1 47/4/1 43/4/1
f 49/4/1 48/4/1 47/4/1
f 50/4/1 46/4/1 48/4/1
f 50/4/1 48/4/1 49/4/1
f 55/2/1 52/2/1 51/2/1
f 56/2/1 52/2/1 55/2/1
f 57/2/1 54/2/1 53/2/1
f 61/2/1 60/2/1 59/2/1
f 62/2/1 60/2/1 61/2/1
f 63/2/1 58/2/1 57/2/1
f 63/2/1 57/2/1 53/2/1
f 64/2/1 58/2/1 63/2/1
f 65/2/1 58/2/1 64/2/1
f 66/4/1 62/4/1 61/4/1
f 67/4/1 62/4/1 66/4/1
f 68/4/1 64/4/1 63/4/1
f 69/4/1 64/4/1 68/4/1
f 72/4/1 71/4/1 70/4/1
f 73/4/1 71/4/1 72/4/1
f 76/5/1 75/5/1 74/5/1
f 77/5/1 75/5/1 76/5/1
f 83/2/1 79/2/1 78/2/1
f 84/2/1 79/2/1 83/2/1
f 85/2/1 83/2/1 82/2/1
f 86/2/1 83/2/1 85/2/1
f 88/2/1 81/2/1 80/2/1
f 89/2/1 81/2/1 88/2/1
f 92/3/1 91/3/1 90/3/1
f 93/3/1 91/3/1 92/3/1
f 94/4/1 86/4/1 85/4/1
f 95/4/1 86/4/1 94/4/1
f 98/4/1 88/4/1 87/4/1
f 99/4/1 88/4/1 98/4/1
f 100/4/1 96/4/1 95/4/1
f 101/4/1 96/4/1 100/4/1
f 102/4/1 98/4/1 97/4/1
f 103/4/1 98/4/1 102/4/1
f 106/4/1 105/4/1 104/4/1
f 107/4/1 105/4/1 106/4/1
f 110/5/1 109/5/1 108/5/1
f 111/5/1 109/5/1 110/5/1
f 116/5/1 113/5/1 112/5/1
f 117/5/1 113/5/1 116/5/1
f 118/5/1 115/5/1 114/5/1
f 119/5/1 115/5/1 118/5/1
f 122/3/1 121/3/1 120/3/1
f 123/3/1 121/3/1 122/3/1
f 126/4/1 125/4/1 124/4/1
f 127/4/1 125/4/1 126/4/1
f 130/5/1 129/5/1 128/5/1
f 131/5/1 129/5/1 130/5/1
f 134/5/1 133/5/1 132/5/1
f 135/5/1 133/5/1 134/5/1
f 141/2/1 139/2/1 138/2/1
f 142/1/1 141/1/1 140/1/1
f 143/2/1 139/2/1 141/2/1
f 143/1/1 141/1/1 142/1/1
f 144/2/1 139/2/1 143/2/1
f 146/2/1 137/2/1 136/2/1
f 147/2/1 137/2/1 146/2/1
f 148/3/1 143/3/1 142/3/1
f 149/4/1 144/4/1 143/4/1
f 149/3/1 143/3/1 148/3/1
f 150/1/1 149/1/1 148/1/1
f 151/4/1 144/4/1 149/4/1
f 151/1/1 149/1/1 150/1/1
f 153/4/1 144/4/1 151/4/1
f 154/7/1 153/7/1 152/7/1
f 155/4/1 144/4/1 153/4/1
f 155/7/1 153/7/1 154/7/1
f 156/4/1 146/4/1 145/4/1
f 157/4/1 146/4/1 156/4/1
f 158/4/1 144/4/1 155/4/1
f 159/4/1 144/4/1 158/4/1
f 162/1/1 161/1/1 160/1/1
f 163/1/1 161/1/1 162/1/1
f 164/3/1 163/3/1 162/3/1
f 165/3/1 163/3/1 164/3/1
f 166/1/1 165/1/1 164/1/1
f 168/1/1 166/1/1 164/1/1
f 168/1/1 167/1/1 166/1/1
f 169/1/1 167/1/1 168/1/1
f 170/1/1 167/1/1 169/1/1
f 171/1/1 167/1/1 170/1/1
f 177/1/1 175/1/1 174/1/1
f 178/1/1 175/1/1 177/1/1
f 179/1/1 177/1/1 176/1/1
f 180/1/1 177/1/1 179/1/1
f 183/2/1 173/2/1 172/2/1
f 184/2/1 173/2/1 183/2/1
f 185/3/1 180/3/1 179/3/1
f 186/3/1 180/3/1 185/3/1
f 187/1/1 186/1/1 185/1/1
f 188/1/1 186/1/1 187/1/1
f 191/1/1 190/1/1 189/1/1
f 192/1/1 190/1/1 191/1/1
f 194/1/1 193/1/1 192/1/1
f 195/1/1 193/1/1 194/1/1
f 196/4/1 182/4/1 181/4/1
f 197/4/1 182/4/1 196/4/1
f 200/1/1 199/1/1 198/1/1
f 201/1/1 199/1/1 200/1/1
f 204/4/1 203/4/1 202/4/1
f 205/4/1 203/4/1 204/4/1
f 208/5/1 207/5/1 206/5/1
f 210/5/1 209/5/1 208/5/1
f 212/5/1 208/5/1 206/5/1
f 212/5/1 211/5/1 210/5/1
f 212/5/1 210/5/1 208/5/1
f 213/5/1 211/5/1 212/5/1
f 214/5/1 211/5/1 213/5/1
f 215/5/1 211/5/1 214/5/1
f 218/4/1 217/4/1 216/4/1
f 219/4/1 217/4/1 218/4/1
f 220/4/1 217/4/1 219/4/1
f 222/4/1 221/4/1 220/4/1
f 222/4/1 220/4/1 219/4/1
f 223/4/1 221/4/1 222/4/1
f 224/4/1 221/4/1 223/4/1
f 226/4/1 225/4/1 224/4/1
f 226/4/1 224/4/1 223/4/1
f 227/4/1 225/4/1 226/4/1
f 230/5/1 229/5/1 228/5/1
f 231/5/1 229/5/1 230/5/1
f 234/2/1 233/2/1 232/2/1
f 235/2/1 233/2/1 234/2/1
f 238/7/1 237/7/1 236/7/1
f 239/7/1 237/7/1 238/7/1
f 240/3/1 239/3/1 238/3/1
f 241/3/1 239/3/1 240/3/1
f 244/4/1 243/4/1 242/4/1
f 245/4/1 243/4/1 244/4/1
f 246/4/1 243/4/1 245/4/1
f 248/4/1 247/4/1 246/4/1
f 248/4/1 246/4/1 245/4/1
f 249/4/1 247/4/1 248/4/1
f 250/4/1 247/4/1 249/4/1
f 251/4/1 247/4/1 250/4/1
f 254/5/1 253/5/1 252/5/1
f 255/5/1 253/5/1 254/5/1
f 258/5/1 257/5/1 256/5/1
f 259/5/1 257/5/1 258/5/1
f 262/3/1 261/3/1 260/3/1
f 263/3/1 261/3/1 262/3/1
f 264/3/2 265/3/2 266/3/2
f 266/3/2 265/3/2 267/3/2
f 268/5/2 269/5/2 270/5/2
f 270/5/2 269/5/2 271/5/2
f 272/5/2 273/5/2 274/5/2
f 274/5/2 273/5/2 275/5/2
f 276/5/2 277/5/2 278/5/2
f 278/5/2 277/5/2 279/5/2
f 280/2/2 281/2/2 282/2/2
f 282/2/2 281/2/2 283/2/2
f 284/7/2 285/7/2 286/7/2
f 286/7/2 285/7/2 287/7/2
f 286/3/2 287/3/2 288/3/2
f 288/3/2 287/3/2 289/3/2
f 290/5/2 291/5/2 292/5/2
f 292/5/2 293/5/2 294/5/2
f 290/5/2 292/5/2 296/5/2
f 294/5/2 295/5/2 296/5/2
f 292/5/2 294/5/2 296/5/2
f 296/5/2 295/5/2 297/5/2
f 297/5/2 295/5/2 298/5/2
f 298/5/2 295/5/2 299/5/2
f 300/4/2 301/4/2 302/4/2
f 302/4/2 301/4/2 303/4/2
f 303/4/2 301/4/2 304/4/2
f 304/4/2 305/4/2 306/4/2
f 303/4/2 304/4/2 306/4/2
f 306/4/2 305/4/2 307/4/2
f 307/4/2 305/4/2 308/4/2
f 307/4/2 308/4/2 310/4/2
f 308/4/2 309/4/2 310/4/2
f 310/4/2 309/4/2 311/4/2
f 312/4/2 313/4/2 314/4/2
f 314/4/2 313/4/2 315/4/2
f 316/1/2 317/1/2 318/1/2
f 318/1/2 317/1/2 319/1/2
f 320/4/2 321/4/2 322/4/2
f 322/4/2 321/4/2 323/4/2
f 323/4/2 321/4/2 324/4/2
f 324/4/2 325/4/2 326/4/2
f 323/4/2 324/4/2 326/4/2
f 326/4/2 325/4/2 327/4/2
f 330/1/2 331/1/2 333/1/2
f 333/1/2 331/1/2 334/1/2
f 332/1/2 333/1/2 335/1/2
f 335/1/2 333/1/2 336/1/2
f 328/2/2 329/2/2 339/2/2
f 339/2/2 329/2/2 340/2/2
f 335/3/2 336/3/2 341/3/2
f 341/3/2 336/3/2 342/3/2
f 341/1/2 342/1/2 343/1/2
f 343/1/2 342/1/2 344/1/2
f 345/1/2 346/1/2 347/1/2
f 347/1/2 346/1/2 348/1/2
f 348/1/2 349/1/2 350/1/2
f 350/1/2 349/1/2 351/1/2
f 337/4/2 338/4/2 352/4/2
f 352/4/2 338/4/2 353/4/2
f 354/1/2 355/1/2 356/1/2
f 356/1/2 355/1/2 357/1/2
f 356/3/2 357/3/2 358/3/2
f 358/3/2 357/3/2 359/3/2
f 358/1/2 359/1/2 360/1/2
f 358/1/2 360/1/2 362/1/2
f 360/1/2 361/1/2 362/1/2
f 362/1/2 361/1/2 363/1/2
f 363/1/2 361/1/2 364/1/2
f 364/1/2 361/1/2 365/1/2
f 366/5/2 367/5/2 368/5/2
f 368/5/2 367/5/2 369/5/2
f 370/5/2 371/5/2 372/5/2
f 372/5/2 371/5/2 373/5/2
f 376/2/2 377/2/2 379/2/2
f 378/1/2 379/1/2 380/1/2
f 379/2/2 377/2/2 381/2/2
f 380/1/2 379/1/2 381/1/2
f 381/2/2 377/2/2 382/2/2
f 374/2/2 375/2/2 384/2/2
f 384/2/2 375/2/2 385/2/2
f 380/3/2 381/3/2 386/3/2
f 381/4/2 382/4/2 387/4/2
f 386/3/2 381/3/2 387/3/2
f 386/1/2 387/1/2 388/1/2
f 387/4/2 382/4/2 389/4/2
f 388/1/2 387/1/2 389/1/2
f 389/4/2 382/4/2 391/4/2
f 390/7/2 391/7/2 392/7/2
f 391/4/2 382/4/2 393/4/2
f 392/7/2 391/7/2 393/7/2
f 383/4/2 384/4/2 394/4/2
f 394/4/2 384/4/2 395/4/2
f 393/4/2 382/4/2 396/4/2
f 396/4/2 382/4/2 397/4/2
f 398/5/2 399/5/2 400/5/2
f 400/5/2 399/5/2 401/5/2
f 402/5/2 403/5/2 406/5/2
f 406/5/2 403/5/2 407/5/2
f 404/5/2 405/5/2 408/5/2
f 408/5/2 405/5/2 409/5/2
f 410/3/2 411/3/2 412/3/2
f 412/3/2 411/3/2 413/3/2
f 414/4/2 415/4/2 416/4/2
f 416/4/2 415/4/2 417/4/2
f 418/5/2 419/5/2 420/5/2
f 420/5/2 419/5/2 421/5/2
f 422/2/2 423/2/2 427/2/2
f 427/2/2 423/2/2 428/2/2
f 426/2/2 427/2/2 429/2/2
f 429/2/2 427/2/2 430/2/2
f 424/2/2 425/2/2 432/2/2
f 432/2/2 425/2/2 433/2/2
f 434/3/2 435/3/2 436/3/2
f 436/3/2 435/3/2 437/3/2
f 429/4/2 430/4/2 438/4/2
f 438/4/2 430/4/2 439/4/2
f 431/4/2 432/4/2 442/4/2
f 442/4/2 432/4/2 443/4/2
f 439/4/2 440/4/2 444/4/2
f 444/4/2 440/4/2 445/4/2
f 441/4/2 442/4/2 446/4/2
f 446/4/2 442/4/2 447/4/2
f 448/4/2 449/4/2 450/4/2
f 450/4/2 449/4/2 451/4/2
f 452/2/2 453/2/2 456/2/2
f 456/2/2 453/2/2 457/2/2
f 454/2/2 455/2/2 458/2/2
f 460/2/2 461/2/2 462/2/2
f 462/2/2 461/2/2 463/2/2
f 458/2/2 459/2/2 464/2/2
f 454/2/2 458/2/2 464/2/2
f 464/2/2 459/2/2 465/2/2
f 465/2/2 459/2/2 466/2/2
f 462/4/2 463/4/2 467/4/2
f 467/4/2 463/4/2 468/4/2
f 464/4/2 465/4/2 469/4/2
f 469/4/2 465/4/2 470/4/2
f 471/4/2 472/4/2 473/4/2
f 473/4/2 472/4/2 474/4/2
f 475/2/2 476/2/2 477/2/2
f 477/2/2 476/2/2 478/2/2
f 479/4/2 480/4/2 483/4/2
f 481/4/2 482/4/2 484/4/2
f 479/4/2 483/4/2 485/4/2
f 483/4/2 484/4/2 485/4/2
f 484/4/2 482/4/2 486/4/2
f 485/4/2 484/4/2 486/4/2
f 487/2/2 488/2/2 491/2/2
f 491/2/2 488/2/2 492/2/2
f 489/2/2 490/2/2 495/2/2
f 495/2/2 490/2/2 496/2/2
f 492/4/2 493/4/2 497/4/2
f 494/4/2 495/4/2 498/4/2
f 492/4/2 497/4/2 499/4/2
f 497/4/2 498/4/2 499/4/2
f 498/4/2 495/4/2 500/4/2
f 499/4/2 498/4/2 500/4/2
f 501/2/2 502/2/2 503/2/2
f 503/2/2 502/2/2 504/2/2
f 501/2/2 503/2/2 505/2/2
f 505/2/2 503/2/2 506/2/2
f 504/2/2 502/2/2 507/2/2
f 507/2/2 502/2/2 508/2/2
f 506/4/2 507/4/2 509/4/2
f 509/4/2 507/4/2 510/4/2
f 511/2/2 512/2/2 513/2/2
f 513/2/2 512/2/2 514/2/2
f 511/2/2 513/2/2 515/2/2
f 511/2/2 515/2/2 517/2/2
f 515/2/2 516/2/2 517/2/2
f 517/2/2 516/2/2 518/2/2
f 519/2/2 520/2/2 521/2/2
f 521/2/2 520/2/2 522/2/2
f 527/1/3 526/1/3 525/1/3
f 529/1/3 524/1/3 523/1/3
f 530/3/3 525/3/3 524/3/3
f 530/1/3 524/1/3 529/1/3
f 531/1/3 528/1/3 527/1/3
f 531/3/3 525/3/3 530/3/3
f 531/1/3 527/1/3 525/1/3
f 532/3/3 530/3/3 529/3/3
f 533/1/3 531/1/3 530/1/3
f 533/3/3 530/3/3 532/3/3
f 534/1/3 528/1/3 531/1/3
f 534/1/3 531/1/3 533/1/3
f 535/1/3 528/1/3 534/1/3
f 536/1/3 528/1/3 535/1/3
f 537/1/3 533/1/3 532/1/3
f 538/3/3 534/3/3 533/3/3
f 538/1/3 533/1/3 537/1/3
f 539/1/3 535/1/3 534/1/3
f 539/3/3 534/3/3 538/3/3
f 540/1/3 535/1/3 539/1/3
f 546/1/3 542/1/3 541/1/3
f 547/3/3 543/3/3 542/3/3
f 547/1/3 542/1/3 546/1/3
f 548/1/3 544/1/3 543/1/3
f 548/3/3 543/3/3 547/3/3
f 549/1/3 544/1/3 548/1/3
f 550/1/3 544/1/3 549/1/3
f 552/1/3 551/1/3 550/1/3
f 552/1/3 550/1/3 549/1/3
f 553/1/3 551/1/3 552/1/3
f 554/1/3 546/1/3 545/1/3
f 555/1/3 554/1/3 545/1/3
f 557/1/3 551/1/3 553/1/3
f 558/1/3 555/1/3 545/1/3
f 559/1/3 555/1/3 558/1/3
f 562/1/3 557/1/3 556/1/3
f 563/1/3 551/1/3 557/1/3
f 563/1/3 557/1/3 562/1/3
f 564/1/3 551/1/3 563/1/3
f 565/1/3 560/1/3 559/1/3
f 566/3/3 561/3/3 560/3/3
f 566/1/3 560/1/3 565/1/3
f 567/1/3 562/1/3 561/1/3
f 567/3/3 561/3/3 566/3/3
f 567/1/3 563/1/3 562/1/3
f 568/1/3 563/1/3 567/1/3
f 572/3/3 570/3/3 569/3/3
f 578/3/3 572/3/3 571/3/3
f 579/1/3 574/1/3 573/1/3
f 580/3/3 575/3/3 574/3/3
f 580/1/3 574/1/3 579/1/3
f 581/1/3 576/1/3 575/1/3
f 581/3/3 575/3/3 580/3/3
f 582/1/3 576/1/3 581/1/3
f 585/3/3 570/3/3 572/3/3
f 585/3/3 572/3/3 578/3/3
f 586/3/3 570/3/3 585/3/3
f 587/1/3 584/1/3 583/1/3
f 588/1/3 584/1/3 587/1/3
f 590/7/3 578/7/3 577/7/3
f 591/3/3 585/3/3 578/3/3
f 591/7/3 578/7/3 590/7/3
f 592/7/3 590/7/3 577/7/3
f 592/6/3 591/6/3 590/6/3
f 593/3/3 585/3/3 591/3/3
f 593/6/3 591/6/3 592/6/3
f 594/7/3 592/7/3 577/7/3
f 594/7/3 593/7/3 592/7/3
f 595/3/3 585/3/3 593/3/3
f 595/7/3 593/7/3 594/7/3
f 596/3/3 585/3/3 595/3/3
f 600/7/3 598/7/3 597/7/3
f 601/3/3 599/3/3 598/3/3
f 601/7/3 598/7/3 600/7/3
f 603/1/3 589/1/3 588/1/3
f 604/1/3 589/1/3 603/1/3
f 605/7/3 600/7/3 597/7/3
f 605/6/3 601/6/3 600/6/3
f 606/3/3 599/3/3 601/3/3
f 606/6/3 601/6/3 605/6/3
f 611/1/3 603/1/3 602/1/3
f 612/1/3 603/1/3 611/1/3
f 613/3/3 599/3/3 606/3/3
f 615/1/3 608/1/3 607/1/3
f 616/3/3 609/3/3 608/3/3
f 616/1/3 608/1/3 615/1/3
f 617/1/3 610/1/3 609/1/3
f 617/3/3 609/3/3 616/3/3
f 618/1/3 610/1/3 617/1/3
f 619/7/3 605/7/3 597/7/3
f 619/7/3 606/7/3 605/7/3
f 620/3/3 613/3/3 606/3/3
f 620/7/3 606/7/3 619/7/3
f 620/3/3 614/3/3 613/3/3
f 621/3/3 614/3/3 620/3/3
f 622/3/3 614/3/3 621/3/3
f 623/3/3 614/3/3 622/3/3
f 624/3/3 614/3/3 623/3/3
f 629/4/3 628/4/3 627/4/3
f 630/4/3 628/4/3 629/4/3
f 633/2/3 626/2/3 625/2/3
f 634/2/3 626/2/3 633/2/3
f 635/4/3 628/4/3 630/4/3
f 636/4/3 628/4/3 635/4/3
f 637/4/3 628/4/3 636/4/3
f 639/4/3 632/4/3 631/4/3
f 640/4/3 638/4/3 637/4/3
f 640/4/3 639/4/3 638/4/3
f 640/4/3 637/4/3 636/4/3
f 641/4/3 639/4/3 640/4/3
f 642/4/3 632/4/3 639/4/3
f 642/4/3 639/4/3 641/4/3
f 643/2/3 633/2/3 625/2/3
f 646/4/3 640/4/3 636/4/3
f 648/4/3 646/4/3 645/4/3
f 649/4/3 632/4/3 642/4/3
f 650/4/3 632/4/3 649/4/3
f 651/2/3 644/2/3 643/2/3
f 651/2/3 643/2/3 625/2/3
f 652/2/3 644/2/3 651/2/3
f 653/4/3 648/4/3 647/4/3
f 654/4/3 640/4/3 646/4/3
f 654/4/3 648/4/3 653/4/3
f 654/4/3 646/4/3 648/4/3
f 658/2/3 656/2/3 655/2/3
f 659/4/3 657/4/3 656/4/3
f 659/2/3 656/2/3 658/2/3
f 660/4/3 657/4/3 659/4/3
f 661/2/3 658/2/3 655/2/3
f 663/4/3 657/4/3 660/4/3
f 664/2/3 662/2/3 661/2/3
f 664/2/3 661/2/3 655/2/3
f 665/4/3 663/4/3 662/4/3
f 665/2/3 662/2/3 664/2/3
f 666/4/3 657/4/3 663/4/3
f 666/4/3 663/4/3 665/4/3
f 671/2/3 668/2/3 667/2/3
f 672/4/3 669/4/3 668/4/3
f 672/2/3 668/2/3 671/2/3
f 673/4/3 669/4/3 672/4/3
f 675/2/3 671/2/3 670/2/3
f 676/2/3 671/2/3 675/2/3
f 678/4/3 674/4/3 673/4/3
f 679/4/3 674/4/3 678/4/3
f 680/2/3 677/2/3 676/2/3
f 681/4/3 678/4/3 677/4/3
f 681/2/3 677/2/3 680/2/3
f 682/4/3 678/4/3 681/4/3
f 685/2/3 684/2/3 683/2/3
f 688/2/3 685/2/3 683/2/3
f 689/2/3 685/2/3 688/2/3
f 690/4/3 686/4/3 685/4/3
f 690/2/3 685/2/3 689/2/3
f 691/4/3 686/4/3 690/4/3
f 692/4/3 686/4/3 691/4/3
f 694/2/3 689/2/3 688/2/3
f 694/2/3 688/2/3 687/2/3
f 695/2/3 689/2/3 694/2/3
f 696/4/3 693/4/3 692/4/3
f 696/4/3 692/4/3 691/4/3
f 697/4/3 693/4/3 696/4/3
f 698/2/3 694/2/3 687/2/3
f 701/4/3 693/4/3 697/4/3
f 702/2/3 699/2/3 698/2/3
f 702/2/3 698/2/3 687/2/3
f 703/2/3 699/2/3 702/2/3
f 704/2/3 699/2/3 703/2/3
f 706/4/3 701/4/3 700/4/3
f 707/4/3 693/4/3 701/4/3
f 707/4/3 701/4/3 706/4/3
f 708/4/3 693/4/3 707/4/3
f 709/2/3 705/2/3 704/2/3
f 709/4/3 706/4/3 705/4/3
f 709/4/3 707/4/3 706/4/3
f 709/2/3 704/2/3 703/2/3
f 710/4/3 707/4/3 709/4/3
f 711/2/3 709/2/3 703/2/3
f 712/2/3 709/2/3 711/2/3
f 716/2/3 714/2/3 713/2/3
f 717/2/3 714/2/3 716/2/3
f 718/2/3 714/2/3 717/2/3
f 720/4/3 719/4/3 718/4/3
f 721/4/3 719/4/3 720/4/3
f 722/2/3 716/2/3 715/2/3
f 722/2/3 717/2/3 716/2/3
f 723/2/3 717/2/3 722/2/3
f 727/2/3 722/2/3 715/2/3
f 728/5/3 727/5/3 726/5/3
f 729/2/3 722/2/3 727/2/3
f 729/5/3 727/5/3 728/5/3
f 730/4/3 725/4/3 724/4/3
f 731/4/3 725/4/3 730/4/3
f 732/2/3 722/2/3 729/2/3
f 736/2/3 733/2/3 732/2/3
f 737/4/3 735/4/3 734/4/3
f 738/4/3 735/4/3 737/4/3
f 739/2/3 732/2/3 729/2/3
f 739/2/3 736/2/3 732/2/3
f 739/2/3 737/2/3 736/2/3
f 740/2/3 737/2/3 739/2/3
f 743/2/3 742/2/3 741/2/3
f 744/2/3 742/2/3 743/2/3
f 746/4/3 745/4/3 744/4/3
f 747/4/3 745/4/3 746/4/3
f 750/5/3 749/5/3 748/5/3
f 751/5/3 749/5/3 750/5/3
f 756/4/3 753/4/3 752/4/3
f 757/4/3 753/4/3 756/4/3
f 758/5/3 755/5/3 754/5/3
f 759/5/3 755/5/3 758/5/3
f 763/4/3 761/4/3 760/4/3
f 764/4/3 761/4/3 763/4/3
f 765/2/3 763/2/3 762/2/3
f 766/2/3 763/2/3 765/2/3
f 769/5/3 768/5/3 767/5/3
f 770/5/3 768/5/3 769/5/3
f 773/5/3 772/5/3 771/5/3
f 774/5/3 772/5/3 773/5/3
f 777/2/3 776/2/3 775/2/3
f 778/2/3 776/2/3 777/2/3
f 781/5/3 780/5/3 779/5/3
f 782/5/3 780/5/3 781/5/3
f 785/5/3 784/5/3 783/5/3
f 786/5/3 784/5/3 785/5/3
f 789/5/3 788/5/3 787/5/3
f 790/5/3 788/5/3 789/5/3
f 793/5/3 792/5/3 791/5/3
f 794/5/3 792/5/3 793/5/3
f 797/2/3 796/2/3 795/2/3
f 798/2/3 796/2/3 797/2/3
f 801/5/3 800/5/3 799/5/3
f 802/5/3 800/5/3 801/5/3
f 805/5/3 804/5/3 803/5/3
f 806/5/3 804/5/3 805/5/3
f 809/4/3 808/4/3 807/4/3
f 810/4/3 808/4/3 809/4/3
f 813/4/3 812/4/3 811/4/3
f 814/4/3 812/4/3 813/4/3
f 817/4/3 816/4/3 815/4/3
f 818/4/3 816/4/3 817/4/3
f 821/4/3 820/4/3 819/4/3
f 822/4/3 820/4/3 821/4/3
f 825/4/3 824/4/3 823/4/3
f 826/4/3 824/4/3 825/4/3
f 829/2/3 828/2/3 827/2/3
f 830/2/3 828/2/3 829/2/3
f 833/5/3 832/5/3 831/5/3
f 834/5/3 832/5/3 833/5/3
f 835/3/4 836/3/4 838/3/4
f 837/3/4 838/3/4 839/3/4
f 838/3/4 836/3/4 840/3/4
f 839/3/4 838/3/4 840/3/4
f 841/3/4 842/3/4 843/3/4
f 843/3/4 842/3/4 844/3/4
f 844/3/4 842/3/4 845/3/4
f 845/3/4 842/3/4 846/3/4
f 847/5/4 848/5/4 849/5/4
f 849/5/4 848/5/4 850/5/4
f 851/4/4 852/4/4 853/4/4
f 853/4/4 852/4/4 854/4/4
f 855/5/4 856/5/4 857/5/4
f 857/5/4 856/5/4 858/5/4
f 859/5/4 860/5/4 861/5/4
f 861/5/4 860/5/4 862/5/4
f 863/4/4 864/4/4 867/4/4
f 867/4/4 864/4/4 868/4/4
f 865/5/4 866/5/4 869/5/4
f 869/5/4 866/5/4 870/5/4
f 871/4/4 872/4/4 873/4/4
f 873/4/4 872/4/4 874/4/4
f 874/4/4 872/4/4 875/4/4
f 876/4/4 877/4/4 878/4/4
f 878/4/4 877/4/4 879/4/4
f 880/2/4 881/2/4 883/2/4
f 883/2/4 881/2/4 884/2/4
f 882/2/4 883/2/4 886/2/4
f 884/2/4 885/2/4 886/2/4
f 883/2/4 884/2/4 886/2/4
f 886/2/4 885/2/4 887/2/4
f 887/4/4 888/4/4 889/4/4
f 889/4/4 888/4/4 890/4/4
f 893/4/4 894/4/4 895/4/4
f 895/4/4 894/4/4 896/4/4
f 891/4/4 892/4/4 897/4/4
f 897/4/4 892/4/4 898/4/4
f 899/4/4 900/4/4 902/4/4
f 902/4/4 900/4/4 903/4/4
f 901/2/4 902/2/4 904/2/4
f 904/2/4 902/2/4 905/2/4
f 905/2/4 902/2/4 906/2/4
f 906/2/4 902/2/4 907/2/4
f 905/2/4 906/2/4 908/2/4
f 908/2/4 906/2/4 909/2/4
f 910/2/4 911/2/4 913/2/4
f 913/2/4 911/2/4 914/2/4
f 914/2/4 911/2/4 915/2/4
f 914/2/4 915/2/4 917/2/4
f 915/4/4 916/4/4 918/4/4
f 917/2/4 915/2/4 918/2/4
f 918/4/4 916/4/4 919/4/4
f 912/2/4 913/2/4 921/2/4
f 920/5/4 921/5/4 924/5/4
f 921/2/4 913/2/4 925/2/4
f 924/5/4 921/5/4 925/5/4
f 925/2/4 913/2/4 927/2/4
f 926/5/4 927/5/4 928/5/4
f 927/2/4 913/2/4 929/2/4
f 928/5/4 927/5/4 929/5/4
f 922/4/4 923/4/4 930/4/4
f 930/4/4 923/4/4 931/4/4
f 929/2/4 913/2/4 932/2/4
f 932/2/4 933/2/4 936/2/4
f 934/4/4 935/4/4 937/4/4
f 937/4/4 935/4/4 938/4/4
f 929/2/4 932/2/4 939/2/4
f 932/2/4 936/2/4 939/2/4
f 936/2/4 937/2/4 939/2/4
f 939/2/4 937/2/4 940/2/4
f 941/2/4 942/2/4 943/2/4
f 941/2/4 943/2/4 946/2/4
f 943/2/4 944/2/4 946/2/4
f 944/4/4 945/4/4 947/4/4
f 946/2/4 944/2/4 947/2/4
f 947/4/4 945/4/4 948/4/4
f 948/4/4 945/4/4 949/4/4
f 949/4/4 950/4/4 951/4/4
f 948/4/4 949/4/4 951/4/4
f 951/4/4 950/4/4 952/4/4
f 953/5/4 954/5/4 955/5/4
f 955/5/4 954/5/4 956/5/4
f 952/4/4 950/4/4 958/4/4
f 957/4/4 958/4/4 961/4/4
f 958/4/4 950/4/4 962/4/4
f 961/4/4 958/4/4 962/4/4
f 962/4/4 950/4/4 963/4/4
f 959/2/4 960/2/4 964/2/4
f 964/2/4 960/2/4 965/2/4
f 960/4/4 961/4/4 966/4/4
f 965/2/4 960/2/4 966/2/4
f 961/4/4 962/4/4 966/4/4
f 966/4/4 962/4/4 967/4/4
f 965/2/4 966/2/4 968/2/4
f 968/2/4 966/2/4 969/2/4
f 972/4/4 973/4/4 974/4/4
f 974/4/4 973/4/4 975/4/4
f 975/4/4 976/4/4 978/4/4
f 978/4/4 976/4/4 979/4/4
f 970/2/4 971/2/4 980/2/4
f 980/2/4 971/2/4 981/2/4
f 977/4/4 978/4/4 982/4/4
f 982/4/4 978/4/4 983/4/4
f 984/2/4 985/2/4 986/2/4
f 986/2/4 985/2/4 987/2/4
f 987/4/4 988/4/4 989/4/4
f 989/4/4 988/4/4 990/4/4
f 990/4/4 988/4/4 992/4/4
f 991/4/4 992/4/4 994/4/4
f 992/4/4 988/4/4 995/4/4
f 994/4/4 992/4/4 995/4/4
f 993/2/4 994/2/4 996/2/4
f 996/2/4 994/2/4 997/2/4
f 998/2/4 999/2/4 1000/2/4
f 1000/2/4 999/2/4 1001/2/4
f 1001/4/4 1002/4/4 1003/4/4
f 1003/4/4 1002/4/4 1004/4/4
f 1005/2/4 1006/2/4 1007/2/4
f 1007/2/4 1006/2/4 1008/2/4
f 1004/4/4 1002/4/4 1010/4/4
f 998/2/4 1000/2/4 1011/2/4
f 1009/4/4 1010/4/4 1012/4/4
f 1010/4/4 1002/4/4 1013/4/4
f 1012/4/4 1010/4/4 1013/4/4
f 998/2/4 1011/2/4 1014/2/4
f 1011/2/4 1012/2/4 1014/2/4
f 1014/2/4 1012/2/4 1015/2/4
f 1016/4/4 1017/4/4 1018/4/4
f 1018/4/4 1017/4/4 1019/4/4
f 1019/4/4 1017/4/4 1021/4/4
f 1020/4/4 1021/4/4 1022/4/4
f 1021/4/4 1017/4/4 1023/4/4
f 1022/4/4 1021/4/4 1023/4/4
f 1024/2/4 1025/2/4 1026/2/4
f 1026/2/4 1025/2/4 1027/2/4
f 1028/4/4 1029/4/4 1030/4/4
f 1030/4/4 1029/4/4 1031/4/4
f 1032/2/4 1033/2/4 1034/2/4
f 1034/2/4 1033/2/4 1035/2/4
f 1036/2/4 1037/2/4 1038/2/4
f 1038/2/4 1037/2/4 1039/2/4
f 1036/2/4 1038/2/4 1040/2/4
f 1039/2/4 1037/2/4 1041/2/4
f 1036/2/4 1040/2/4 1042/2/4
f 1040/2/4 1041/2/4 1042/2/4
f 1041/2/4 1037/2/4 1043/2/4
f 1042/2/4 1041/2/4 1043/2/4
f 1044/5/4 1045/5/4 1046/5/4
f 1046/5/4 1045/5/4 1047/5/4
f 1048/5/4 1049/5/4 1050/5/4
f 1050/5/4 1049/5/4 1051/5/4
f 1052/5/4 1053/5/4 1054/5/4
f 1054/5/4 1053/5/4 1055/5/4
f 1061/5/5 1057/5/5 1056/5/5
f 1062/5/5 1057/5/5 1061/5/5
f 1065/5/5 1059/5/5 1058/5/5
f 1066/5/5 1059/5/5 1065/5/5
f 1068/5/5 1063/5/5 1062/5/5
f 1068/5/5 1061/5/5 1060/5/5
f 1068/5/5 1062/5/5 1061/5/5
f 1069/5/5 1063/5/5 1068/5/5
f 1070/5/5 1067/5/5 1066/5/5
f 1070/5/5 1066/5/5 1065/5/5
f 1070/5/5 1065/5/5 1064/5/5
f 1071/5/5 1067/5/5 1070/5/5
f 1075/5/5 1073/5/5 1072/5/5
f 1076/5/5 1073/5/5 1075/5/5
f 1078/5/5 1075/5/5 1074/5/5
f 1078/5/5 1077/5/5 1076/5/5
f 1078/5/5 1076/5/5 1075/5/5
f 1079/5/5 1077/5/5 1078/5/5
f 1080/5/5 1077/5/5 1079/5/5
f 1081/5/5 1077/5/5 1080/5/5
f 1082/5/5 1078/5/5 1074/5/5
f 1083/5/5 1080/5/5 1079/5/5
f 1084/5/5 1080/5/5 1083/5/5
f 1085/5/5 1077/5/5 1081/5/5
f 1086/5/5 1084/5/5 1083/5/5
f 1086/5/5 1085/5/5 1084/5/5
f 1086/5/5 1082/5/5 1074/5/5
f 1086/5/5 1083/5/5 1082/5/5
f 1087/5/5 1085/5/5 1086/5/5
f 1088/5/5 1077/5/5 1085/5/5
f 1088/5/5 1085/5/5 1087/5/5
f 1089/5/5 1077/5/5 1088/5/5
f 1090/5/5 1088/5/5 1087/5/5
f 1091/5/5 1088/5/5 1090/5/5
f 1096/2/5 1093/2/5 1092/2/5
f 1097/2/5 1093/2/5 1096/2/5
f 1098/2/5 1095/2/5 1094/2/5
f 1099/2/5 1095/2/5 1098/2/5
f 1100/2/5 1096/2/5 1092/2/5
f 1101/2/5 1096/2/5 1100/2/5
f 1102/2/5 1095/2/5 1099/2/5
f 1103/2/5 1095/2/5 1102/2/5
f 1108/2/5 1105/2/5 1104/2/5
f 1109/2/5 1105/2/5 1108/2/5
f 1110/2/5 1107/2/5 1106/2/5
f 1111/2/5 1107/2/5 1110/2/5
f 1113/2/5 1112/2/5 1111/2/5
f 1114/2/5 1112/2/5 1113/2/5
f 1115/2/5 1112/2/5 1114/2/5
f 1116/2/5 1112/2/5 1115/2/5
f 1117/2/5 1115/2/5 1114/2/5
f 1118/2/5 1115/2/5 1117/2/5
f 1123/2/5 1120/2/5 1119/2/5
f 1124/2/5 1120/2/5 1123/2/5
f 1127/2/5 1122/2/5 1121/2/5
f 1128/2/5 1122/2/5 1127/2/5
f 1129/2/5 1126/2/5 1125/2/5
f 1130/2/5 1126/2/5 1129/2/5
f 1135/2/5 1132/2/5 1131/2/5
f 1136/2/5 1132/2/5 1135/2/5
f 1137/2/5 1134/2/5 1133/2/5
f 1138/2/5 1134/2/5 1137/2/5
f 1141/2/5 1140/2/5 1139/2/5
f 1142/2/5 1140/2/5 1141/2/5
f 1145/2/5 1144/2/5 1143/2/5
f 1146/2/5 1144/2/5 1145/2/5
f 1147/2/5 1144/2/5 1146/2/5
f 1148/2/5 1144/2/5 1147/2/5
f 1149/2/5 1147/2/5 1146/2/5
f 1150/2/5 1147/2/5 1149/2/5
f 1154/2/5 1152/2/5 1151/2/5
f 1155/2/5 1152/2/5 1154/2/5
f 1157/2/5 1154/2/5 1153/2/5
f 1158/2/5 1154/2/5 1157/2/5
f 1159/2/5 1156/2/5 1155/2/5
f 1160/2/5 1156/2/5 1159/2/5
f 1165/2/5 1162/2/5 1161/2/5
f 1166/2/5 1162/2/5 1165/2/5
f 1167/2/5 1164/2/5 1163/2/5
f 1168/2/5 1164/2/5 1167/2/5
f 1171/2/5 1170/2/5 1169/2/5
f 1172/2/5 1170/2/5 1171/2/5
f 1173/2/5 1170/2/5 1172/2/5
f 1174/2/5 1170/2/5 1173/2/5
f 1175/2/5 1173/2/5 1172/2/5
f 1176/2/5 1173/2/5 1175/2/5
f 1179/2/5 1178/2/5 1177/2/5
f 1180/2/5 1178/2/5 1179/2/5
f 1183/5/5 1182/5/5 1181/5/5
f 1184/5/5 1182/5/5 1183/5/5
f 1187/5/5 1186/5/5 1185/5/5
f 1188/5/5 1186/5/5 1187/5/5
f 1191/5/5 1190/5/5 1189/5/5
f 1192/5/5 1190/5/5 1191/5/5
f 1195/1/5 1194/1/5 1193/1/5
f 1196/1/5 1194/1/5 1195/1/5
f 1202/1/5 1198/1/5 1197/1/5
f 1203/3/5 1199/3/5 1198/3/5
f 1203/1/5 1198/1/5 1202/1/5
f 1204/1/5 1200/1/5 1199/1/5
f 1204/3/5 1199/3/5 1203/3/5
f 1205/1/5 1200/1/5 1204/1/5
f 1208/1/5 1202/1/5 1201/1/5
f 1209/1/5 1206/1/5 1205/1/5
f 1211/1/5 1208/1/5 1207/1/5
f 1212/1/5 1202/1/5 1208/1/5
f 1212/1/5 1208/1/5 1211/1/5
f 1213/1/5 1210/1/5 1209/1/5
f 1213/1/5 1209/1/5 1205/1/5
f 1214/1/5 1210/1/5 1213/1/5
f 1217/2/5 1216/2/5 1215/2/5
f 1218/2/5 1216/2/5 1217/2/5
f 1223/7/5 1220/7/5 1219/7/5
f 1224/7/5 1220/7/5 1223/7/5
f 1225/7/5 1222/7/5 1221/7/5
f 1226/7/5 1222/7/5 1225/7/5
f 1231/3/5 1228/3/5 1227/3/5
f 1232/3/5 1228/3/5 1231/3/5
f 1233/3/5 1230/3/5 1229/3/5
f 1234/3/5 1230/3/5 1233/3/5
f 1239/3/5 1236/3/5 1235/3/5
f 1240/3/5 1236/3/5 1239/3/5
f 1241/3/5 1238/3/5 1237/3/5
f 1242/3/5 1238/3/5 1241/3/5
f 1245/4/5 1244/4/5 1243/4/5
f 1246/4/5 1244/4/5 1245/4/5
f 1249/4/5 1248/4/5 1247/4/5
f 1250/4/5 1248/4/5 1249/4/5
f 1253/4/5 1252/4/5 1251/4/5
f 1254/4/5 1252/4/5 1253/4/5
f 1255/5/6 1256/5/6 1260/5/6
f 1260/5/6 1256/5/6 1261/5/6
f 1257/5/6 1258/5/6 1264/5/6
f 1264/5/6 1258/5/6 1265/5/6
f 1261/5/6 1262/5/6 1267/5/6
f 1259/5/6 1260/5/6 1267/5/6
f 1260/5/6 1261/5/6 1267/5/6
f 1267/5/6 1262/5/6 1268/5/6
f 1265/5/6 1266/5/6 1269/5/6
f 1264/5/6 1265/5/6 1269/5/6
f 1263/5/6 1264/5/6 1269/5/6
f 1269/5/6 1266/5/6 1270/5/6
f 1259/5/6 1267/5/6 1271/5/6
f 1268/5/6 1262/5/6 1272/5/6
f 1263/5/6 1269/5/6 1273/5/6
f 1270/5/6 1266/5/6 1274/5/6
f 1259/5/6 1271/5/6 1275/5/6
f 1271/5/6 1272/5/6 1275/5/6
f 1272/5/6 1262/5/6 1276/5/6
f 1275/5/6 1272/5/6 1276/5/6
f 1273/5/6 1274/5/6 1277/5/6
f 1263/5/6 1273/5/6 1277/5/6
f 1274/5/6 1266/5/6 1278/5/6
f 1277/5/6 1274/5/6 1278/5/6
f 1279/5/6 1280/5/6 1281/5/6
f 1281/5/6 1280/5/6 1282/5/6
f 1283/2/6 1284/2/6 1285/2/6
f 1285/2/6 1284/2/6 1286/2/6
f 1287/2/6 1288/2/6 1291/2/6
f 1291/2/6 1288/2/6 1292/2/6
f 1289/2/6 1290/2/6 1293/2/6
f 1293/2/6 1290/2/6 1294/2/6
f 1295/5/6 1296/5/6 1297/5/6
f 1297/5/6 1296/5/6 1298/5/6
f 1299/2/6 1300/2/6 1301/2/6
f 1301/2/6 1300/2/6 1302/2/6
f 1303/5/6 1304/5/6 1305/5/6
f 1305/5/6 1304/5/6 1306/5/6
f 1307/2/6 1308/2/6 1312/2/6
f 1312/2/6 1308/2/6 1313/2/6
f 1309/2/6 1310/2/6 1314/2/6
f 1314/2/6 1310/2/6 1315/2/6
f 1311/2/6 1312/2/6 1318/2/6
f 1318/2/6 1312/2/6 1319/2/6
f 1315/2/6 1316/2/6 1320/2/6
f 1320/2/6 1316/2/6 1321/2/6
f 1317/2/6 1318/2/6 1323/2/6
f 1323/2/6 1318/2/6 1324/2/6
f 1321/2/6 1322/2/6 1327/2/6
f 1327/2/6 1322/2/6 1328/2/6
f 1324/2/6 1325/2/6 1329/2/6
f 1329/2/6 1325/2/6 1330/2/6
f 1326/2/6 1327/2/6 1332/2/6
f 1332/2/6 1327/2/6 1333/2/6
f 1331/2/6 1332/2/6 1334/2/6
f 1334/2/6 1332/2/6 1335/2/6
f 1336/2/6 1337/2/6 1340/2/6
f 1340/2/6 1337/2/6 1341/2/6
f 1338/2/6 1339/2/6 1344/2/6
f 1344/2/6 1339/2/6 1345/2/6
f 1341/2/6 1342/2/6 1346/2/6
f 1346/2/6 1342/2/6 1347/2/6
f 1343/2/6 1344/2/6 1350/2/6
f 1350/2/6 1344/2/6 1351/2/6
f 1347/2/6 1348/2/6 1352/2/6
f 1349/2/6 1350/2/6 1355/2/6
f 1352/2/6 1353/2/6 1356/2/6
f 1347/2/6 1352/2/6 1356/2/6
f 1356/2/6 1353/2/6 1357/2/6
f 1357/2/6 1353/2/6 1358/2/6
f 1354/2/6 1355/2/6 1359/2/6
f 1355/2/6 1350/2/6 1360/2/6
f 1359/2/6 1355/2/6 1360/2/6
f 1360/2/6 1350/2/6 1361/2/6
f 1357/2/6 1358/2/6 1362/2/6
f 1358/2/6 1359/2/6 1362/2/6
f 1359/2/6 1360/2/6 1362/2/6
f 1362/2/6 1360/2/6 1363/2/6
f 1364/1/6 1365/1/6 1368/1/6
f 1368/1/6 1365/1/6 1369/1/6
f 1366/1/6 1367/1/6 1370/1/6
f 1370/1/6 1367/1/6 1371/1/6
f 1372/1/6 1373/1/6 1376/1/6
f 1376/1/6 1373/1/6 1377/1/6
f 1374/1/6 1375/1/6 1378/1/6
f 1378/1/6 1375/1/6 1379/1/6
f 1380/1/6 1381/1/6 1384/1/6
f 1384/1/6 1381/1/6 1385/1/6
f 1382/1/6 1383/1/6 1388/1/6
f 1388/1/6 1383/1/6 1389/1/6
f 1386/1/6 1387/1/6 1390/1/6
f 1390/1/6 1387/1/6 1391/1/6
f 1392/1/6 1393/1/6 1395/1/6
f 1395/1/6 1393/1/6 1396/1/6
f 1394/1/6 1395/1/6 1398/1/6
f 1398/1/6 1395/1/6 1399/1/6
f 1396/1/6 1397/1/6 1400/1/6
f 1400/1/6 1397/1/6 1401/1/6
f 1402/4/6 1403/4/6 1404/4/6
f 1404/4/6 1403/4/6 1405/4/6
f 1406/1/6 1407/1/6 1408/1/6
f 1408/1/6 1407/1/6 1409/1/6
f 1410/4/6 1411/4/6 1412/4/6
f 1412/4/6 1411/4/6 1413/4/6
f 1414/3/6 1415/3/6 1418/3/6
f 1418/3/6 1415/3/6 1419/3/6
f 1416/3/6 1417/3/6 1420/3/6
f 1420/3/6 1417/3/6 1421/3/6
f 1422/4/6 1423/4/6 1424/4/6
f 1424/4/6 1423/4/6 1425/4/6
f 1426/3/6 1427/3/6 1430/3/6
f 1430/3/6 1427/3/6 1431/3/6
f 1431/3/6 1427/3/6 1432/3/6
f 1428/3/6 1429/3/6 1433/3/6
f 1433/3/6 1429/3/6 1434/3/6
f 1434/3/6 1429/3/6 1435/3/6
f 1431/4/6 1432/4/6 1436/4/6
f 1433/4/6 1434/4/6 1436/4/6
f 1432/4/6 1433/4/6 1436/4/6
f 1436/4/6 1434/4/6 1437/4/6
f 1438/4/6 1439/4/6 1442/4/6
f 1442/4/6 1439/4/6 1443/4/6
f 1440/4/6 1441/4/6 1444/4/6
f 1444/4/6 1441/4/6 1445/4/6
f 1446/4/6 1447/4/6 1449/4/6
f 1449/4/6 1447/4/6 1450/4/6
f 1448/4/6 1449/4/6 1452/4/6
f 1452/4/6 1449/4/6 1453/4/6
f 1450/4/6 1451/4/6 1454/4/6
f 1454/4/6 1451/4/6 1455/4/6
f 1456/4/6 1457/4/6 1460/4/6
f 1460/4/6 1457/4/6 1461/4/6
f 1458/4/6 1459/4/6 1462/4/6
f 1462/4/6 1459/4/6 1463/4/6
f 1464/4/6 1465/4/6 1468/4/6
f 1468/4/6 1465/4/6 1469/4/6
f 1466/4/6 1467/4/6 1470/4/6
f 1470/4/6 1467/4/6 1471/4/6
f 1469/4/6 1470/4/6 1472/4/6
f 1472/4/6 1470/4/6 1473/4/6
f 1474/4/6 1475/4/6 1478/4/6
f 1478/4/6 1475/4/6 1479/4/6
f 1476/4/6 1477/4/6 1482/4/6
f 1482/4/6 1477/4/6 1483/4/6
f 1480/4/6 1481/4/6 1486/4/6
f 1486/4/6 1481/4/6 1487/4/6
f 1484/4/6 1485/4/6 1488/4/6
f 1488/4/6 1485/4/6 1489/4/6
f 1490/4/6 1491/4/6 1492/4/6
f 1492/4/6 1491/4/6 1493/4/6
f 1490/4/6 1492/4/6 1494/4/6
f 1493/4/6 1491/4/6 1495/4/6
f 1490/4/6 1494/4/6 1496/4/6
f 1494/4/6 1495/4/6 1496/4/6
f 1495/4/6 1491/4/6 1497/4/6
f 1496/4/6 1495/4/6 1497/4/6
f 1498/4/6 1499/4/6 1500/4/6
f 1500/4/6 1499/4/6 1501/4/6
f 1498/4/6 1500/4/6 1502/4/6
f 1501/4/6 1499/4/6 1503/4/6
f 1498/4/6 1502/4/6 1504/4/6
f 1502/4/6 1503/4/6 1504/4/6
f 1503/4/6 1499/4/6 1505/4/6
f 1504/4/6 1503/4/6 1505/4/6
f 1506/4/6 1507/4/6 1508/4/6
f 1508/4/6 1507/4/6 1509/4/6
f 1509/4/6 1507/4/6 1510/4/6
f 1510/4/6 1507/4/6 1511/4/6
f 1506/4/6 1508/4/6 1512/4/6
f 1512/4/6 1513/4/6 1514/4/6
f 1511/4/6 1507/4/6 1515/4/6
f 1512/4/6 1514/4/6 1516/4/6
f 1514/4/6 1515/4/6 1516/4/6
f 1506/4/6 1512/4/6 1516/4/6
f 1515/4/6 1507/4/6 1517/4/6
f 1516/4/6 1515/4/6 1517/4/6
f 1518/4/6 1519/4/6 1520/4/6
f 1520/4/6 1519/4/6 1521/4/6
f 1522/4/6 1523/4/6 1524/4/6
f 1524/4/6 1523/4/6 1525/4/6
f 1526/4/6 1527/4/6 1528/4/6
f 1528/4/6 1527/4/6 1529/4/6
f 1530/4/6 1531/4/6 1532/4/6
f 1532/4/6 1531/4/6 1533/4/6
f 1533/4/6 1531/4/6 1534/4/6
f 1535/4/6 1536/4/6 1537/4/6
f 1537/4/6 1536/4/6 1538/4/6
