# MagicaVoxel @ Ephtracy

# group
o 

# material
mtllib Bard_Wings_L.mtl
usemtl palette

# normals
vn -1 0 0
vn 1 0 0
vn 0 0 1
vn 0 0 -1
vn 0 -1 0
vn 0 1 0

# texcoords
vt 0.115234 0.5
vt 0.841797 0.5

# verts
v -0.7 3.1 0.4
v -0.7 3.1 -0.3
v -0.7 3.2 0.4
v -0.7 3.2 -0.3
v -0.6 3 0.4
v -0.6 3 -0.1
v -0.6 3.1 0.5
v -0.6 3.1 0.4
v -0.6 3.1 -0.1
v -0.6 3.2 0.5
v -0.6 3.2 0.4
v -0.6 3.2 -0.3
v -0.6 3.3 0.4
v -0.6 3.3 -0.3
v 0.8 3 0.4
v 0.8 3 -0.1
v 0.8 3.1 0.5
v 0.8 3.1 0.4
v 0.8 3.1 -0.1
v 0.8 3.1 -0.3
v 0.8 3.2 0.5
v 0.8 3.2 0.4
v 0.8 3.3 0.4
v 0.8 3.3 -0.3
v -0.6 3.1 0.5
v -0.6 3.2 0.5
v 0.8 3.1 0.5
v 0.8 3.2 0.5
v -0.7 3.1 0.4
v -0.7 3.2 0.4
v -0.6 3 0.4
v -0.6 3.1 0.4
v -0.6 3.2 0.4
v -0.6 3.3 0.4
v 0.8 3 0.4
v 0.8 3.1 0.4
v 0.8 3.2 0.4
v 0.8 3.3 0.4
v -0.6 3 -0.1
v -0.6 3.1 -0.1
v 0.8 3 -0.1
v 0.8 3.1 -0.1
v -0.7 3.1 -0.3
v -0.7 3.2 -0.3
v -0.6 3.2 -0.3
v -0.6 3.3 -0.3
v 0.8 3.1 -0.3
v 0.8 3.3 -0.3
v -0.6 3 0.4
v 0.8 3 0.4
v -0.6 3 -0.1
v 0.8 3 -0.1
v -0.6 3.1 0.5
v 0.8 3.1 0.5
v -0.7 3.1 0.4
v -0.6 3.1 0.4
v 0.8 3.1 0.4
v -0.6 3.1 -0.1
v 0.8 3.1 -0.1
v -0.7 3.1 -0.3
v 0.8 3.1 -0.3
v -0.6 3.2 0.5
v 0.8 3.2 0.5
v -0.7 3.2 0.4
v -0.6 3.2 0.4
v 0.8 3.2 0.4
v -0.7 3.2 -0.3
v -0.6 3.2 -0.3
v -0.6 3.3 0.4
v 0.8 3.3 0.4
v -0.6 3.3 -0.3
v 0.8 3.3 -0.3

# faces
f 3/2/1 2/2/1 1/2/1
f 4/2/1 2/2/1 3/2/1
f 8/1/1 6/1/1 5/1/1
f 9/1/1 6/1/1 8/1/1
f 10/2/1 8/2/1 7/2/1
f 11/2/1 8/2/1 10/2/1
f 13/2/1 12/2/1 11/2/1
f 14/2/1 12/2/1 13/2/1
f 15/1/2 16/1/2 18/1/2
f 18/1/2 16/1/2 19/1/2
f 17/2/2 18/2/2 21/2/2
f 19/2/2 20/2/2 21/2/2
f 18/2/2 19/2/2 21/2/2
f 21/2/2 20/2/2 22/2/2
f 22/2/2 20/2/2 23/2/2
f 23/2/2 20/2/2 24/2/2
f 27/2/3 26/2/3 25/2/3
f 28/2/3 26/2/3 27/2/3
f 32/2/3 30/2/3 29/2/3
f 33/2/3 30/2/3 32/2/3
f 35/1/3 32/1/3 31/1/3
f 36/1/3 32/1/3 35/1/3
f 37/2/3 34/2/3 33/2/3
f 38/2/3 34/2/3 37/2/3
f 39/1/4 40/1/4 41/1/4
f 41/1/4 40/1/4 42/1/4
f 43/2/4 44/2/4 45/2/4
f 43/2/4 45/2/4 47/2/4
f 45/2/4 46/2/4 47/2/4
f 47/2/4 46/2/4 48/2/4
f 51/1/5 50/1/5 49/1/5
f 52/1/5 50/1/5 51/1/5
f 56/2/5 54/2/5 53/2/5
f 57/2/5 54/2/5 56/2/5
f 58/2/5 56/2/5 55/2/5
f 60/2/5 58/2/5 55/2/5
f 60/2/5 59/2/5 58/2/5
f 61/2/5 59/2/5 60/2/5
f 62/2/6 63/2/6 65/2/6
f 65/2/6 63/2/6 66/2/6
f 64/2/6 65/2/6 67/2/6
f 67/2/6 65/2/6 68/2/6
f 69/2/6 70/2/6 71/2/6
f 71/2/6 70/2/6 72/2/6
