# Blender v3.1.2 OBJ File: ''
# www.blender.org
mtllib Bard_Wings_R.mtl
o Bard_Wings_R.001
v -0.700000 -0.100000 0.400000
v -0.700000 -0.200000 -0.100000
v -0.700000 -0.200000 0.400000
v -0.700000 -0.100000 -0.099999
v -0.700000 -0.000000 0.500001
v -0.700000 -0.100000 0.500001
v -0.700000 -0.100000 -0.300000
v -0.700000 -0.000000 0.400001
v -0.700000 0.100000 0.400001
v -0.700000 0.100000 -0.299999
v 0.700000 -0.200000 0.400000
v 0.700000 -0.200000 -0.100000
v 0.700000 -0.100000 0.400000
v 0.700000 -0.100000 -0.099999
v 0.700000 -0.100000 0.500001
v 0.700000 -0.000000 0.500001
v 0.700000 -0.000000 0.400001
v 0.700000 0.000000 -0.300000
v 0.700000 0.100000 0.400001
v 0.700000 0.100000 -0.299999
v 0.800000 -0.100000 0.400000
v 0.800000 -0.100000 -0.300000
v 0.800000 -0.000000 0.400001
v 0.800000 0.000000 -0.300000
v 0.700000 -0.100000 0.500001
v -0.700000 -0.000000 0.500001
v -0.700000 -0.100000 0.500001
v 0.700000 -0.000000 0.500001
v 0.700000 -0.200000 0.400000
v -0.700000 -0.100000 0.400000
v -0.700000 -0.200000 0.400000
v 0.700000 -0.100000 0.400000
v 0.700000 -0.000000 0.400001
v -0.700000 0.100000 0.400001
v -0.700000 -0.000000 0.400001
v 0.700000 0.100000 0.400001
v 0.800000 -0.100000 0.400000
v 0.800000 -0.000000 0.400001
v -0.700000 -0.200000 -0.100000
v -0.700000 -0.100000 -0.099999
v 0.700000 -0.200000 -0.100000
v 0.700000 -0.100000 -0.099999
v -0.700000 -0.100000 -0.300000
v -0.700000 0.100000 -0.299999
v 0.700000 0.000000 -0.300000
v 0.700000 0.100000 -0.299999
v 0.800000 -0.100000 -0.300000
v 0.800000 0.000000 -0.300000
v -0.700000 -0.200000 -0.100000
v 0.700000 -0.200000 0.400000
v -0.700000 -0.200000 0.400000
v 0.700000 -0.200000 -0.100000
v -0.700000 -0.100000 0.400000
v 0.700000 -0.100000 0.500001
v -0.700000 -0.100000 0.500001
v 0.700000 -0.100000 0.400000
v 0.700000 -0.100000 -0.099999
v 0.800000 -0.100000 0.400000
v -0.700000 -0.100000 -0.300000
v -0.700000 -0.100000 -0.099999
v 0.800000 -0.100000 -0.300000
v -0.700000 -0.000000 0.500001
v 0.700000 -0.000000 0.500001
v -0.700000 -0.000000 0.400001
v 0.700000 -0.000000 0.400001
v 0.800000 -0.000000 0.400001
v 0.700000 0.000000 -0.300000
v 0.800000 0.000000 -0.300000
v -0.700000 0.100000 0.400001
v 0.700000 0.100000 0.400001
v -0.700000 0.100000 -0.299999
v 0.700000 0.100000 -0.299999
vt 0.115234 0.500000
vt 0.115234 0.500000
vt 0.115234 0.500000
vt 0.115234 0.500000
vt 0.841797 0.500000
vt 0.841797 0.500000
vt 0.841797 0.500000
vt 0.841797 0.500000
vt 0.841797 0.500000
vt 0.841797 0.500000
vt 0.841797 0.500000
vt 0.841797 0.500000
vt 0.115234 0.500000
vt 0.115234 0.500000
vt 0.115234 0.500000
vt 0.115234 0.500000
vt 0.841797 0.500000
vt 0.841797 0.500000
vt 0.841797 0.500000
vt 0.841797 0.500000
vt 0.841797 0.500000
vt 0.841797 0.500000
vt 0.841797 0.500000
vt 0.841797 0.500000
vt 0.841797 0.500000
vt 0.841797 0.500000
vt 0.841797 0.500000
vt 0.841797 0.500000
vt 0.841797 0.500000
vt 0.841797 0.500000
vt 0.841797 0.500000
vt 0.115234 0.500000
vt 0.115234 0.500000
vt 0.115234 0.500000
vt 0.115234 0.500000
vt 0.841797 0.500000
vt 0.841797 0.500000
vt 0.841797 0.500000
vt 0.841797 0.500000
vt 0.841797 0.500000
vt 0.841797 0.500000
vt 0.841797 0.500000
vt 0.115234 0.500000
vt 0.115234 0.500000
vt 0.115234 0.500000
vt 0.115234 0.500000
vt 0.841797 0.500000
vt 0.841797 0.500000
vt 0.841797 0.500000
vt 0.841797 0.500000
vt 0.841797 0.500000
vt 0.841797 0.500000
vt 0.115234 0.500000
vt 0.115234 0.500000
vt 0.115234 0.500000
vt 0.115234 0.500000
vt 0.841797 0.500000
vt 0.841797 0.500000
vt 0.841797 0.500000
vt 0.841797 0.500000
vt 0.841797 0.500000
vt 0.841797 0.500000
vt 0.841797 0.500000
vt 0.841797 0.500000
vt 0.841797 0.500000
vt 0.841797 0.500000
vt 0.841797 0.500000
vt 0.841797 0.500000
vt 0.841797 0.500000
vt 0.841797 0.500000
vt 0.841797 0.500000
vt 0.841797 0.500000
vt 0.841797 0.500000
vt 0.841797 0.500000
vt 0.841797 0.500000
vt 0.841797 0.500000
vn -1.0000 0.0000 0.0000
vn 1.0000 0.0000 0.0000
vn 0.0000 0.0000 1.0000
vn 0.0000 0.0000 -1.0000
vn 0.0000 -1.0000 -0.0000
vn 0.0000 1.0000 0.0000
usemtl palette.003
s 1
f 1/1/1 2/2/1 3/3/1
f 4/4/1 2/2/1 1/1/1
f 5/5/1 1/6/1 6/7/1
f 5/5/1 7/8/1 4/9/1
f 5/5/1 4/9/1 1/6/1
f 8/10/1 7/8/1 5/5/1
f 9/11/1 7/8/1 8/10/1
f 10/12/1 7/8/1 9/11/1
f 11/13/2 12/14/2 13/15/2
f 13/15/2 12/14/2 14/16/2
f 15/17/2 13/18/2 16/19/2
f 16/19/2 13/18/2 17/20/2
f 17/20/2 18/21/2 19/22/2
f 19/22/2 18/21/2 20/23/2
f 21/24/2 22/25/2 23/26/2
f 23/26/2 22/25/2 24/27/2
f 25/28/3 26/29/3 27/30/3
f 28/31/3 26/29/3 25/28/3
f 29/32/3 30/33/3 31/34/3
f 32/35/3 30/33/3 29/32/3
f 33/36/3 34/37/3 35/38/3
f 36/39/3 34/37/3 33/36/3
f 37/40/3 33/36/3 32/41/3
f 38/42/3 33/36/3 37/40/3
f 39/43/4 40/44/4 41/45/4
f 41/45/4 40/44/4 42/46/4
f 43/47/4 44/48/4 45/49/4
f 45/49/4 44/48/4 46/50/4
f 43/47/4 45/49/4 47/51/4
f 47/51/4 45/49/4 48/52/4
f 49/53/5 50/54/5 51/55/5
f 52/56/5 50/54/5 49/53/5
f 53/57/5 54/58/5 55/59/5
f 56/60/5 54/58/5 53/57/5
f 57/61/5 58/62/5 56/60/5
f 59/63/5 57/61/5 60/64/5
f 61/65/5 58/62/5 57/61/5
f 61/65/5 57/61/5 59/63/5
f 62/66/6 63/67/6 64/68/6
f 64/68/6 63/67/6 65/69/6
f 65/69/6 66/70/6 67/71/6
f 67/71/6 66/70/6 68/72/6
f 69/73/6 70/74/6 71/75/6
f 71/75/6 70/74/6 72/76/6
